<?xml version="1.0" standalone="no"?>
<!DOCTYPE svg PUBLIC "-//W3C//DTD SVG 1.1//EN" "http://www.w3.org/Graphics/SVG/1.1/DTD/svg11.dtd" >
<svg>
<metadata>
Created by FontForge 20120731 at Sun May 12 13:56:49 2019
 By www-data
Copyright (c) 2017 by Vladimir Nikolic. All rights reserved.
</metadata>
<defs>
<font id="Games" horiz-adv-x="833" >
  <font-face 
    font-family="Games"
    font-weight="400"
    font-stretch="normal"
    units-per-em="1000"
    panose-1="0 0 0 0 0 0 0 0 0 0"
    ascent="750"
    descent="-250"
    x-height="698"
    cap-height="699"
    bbox="-62 -220 788 915"
    underline-thickness="50"
    underline-position="-50"
    unicode-range="U+000D-007A"
  />
<missing-glyph horiz-adv-x="388" 
 />
    <glyph glyph-name=".notdef" horiz-adv-x="388" 
 />
    <glyph glyph-name="NULL" horiz-adv-x="0" 
 />
    <glyph glyph-name="NULL" horiz-adv-x="0" 
 />
    <glyph glyph-name="nonmarkingreturn" unicode="&#xd;" horiz-adv-x="388" 
 />
    <glyph glyph-name="space" unicode=" " horiz-adv-x="388" 
 />
    <glyph glyph-name="O" unicode="O" horiz-adv-x="633" 
d="M620 475v-248q0 -47 -17.5 -87.5t-48.5 -71.5t-72 -48.5t-87 -17.5h-80h-80q-47 0 -87.5 17.5t-71.5 48.5t-48.5 71.5t-17.5 87.5v248q0 46 17.5 87t48.5 72t71.5 48.5t87.5 17.5h80h80q46 0 87 -17.5t72 -48.5t48.5 -72t17.5 -87zM541 227v248q0 147 -146 147h-80h-80
q-146 0 -146 -147v-248q0 -146 146 -146h80h80q146 0 146 146zM518 475v-248q0 -124 -123 -124h-80h-80q-124 0 -124 124v248q0 124 124 124h80h80q123 0 123 -124zM440 227v248q0 19 -13 32t-32 13h-80h-80q-19 0 -32 -13t-13 -32v-248q0 -19 13 -32t32 -13h80h80
q19 0 32 13t13 32z" />
    <glyph glyph-name="N" unicode="N" horiz-adv-x="612" 
d="M486 351v-248h-20l-306 518h-34h-11h-12v-541h23v23v248v22v226h21l306 -519h33h23v23v248v22v226v22h-23v-248v-22v0zM588 182v-181h-180l-203 344v-73v-90v-68v-113h-180v699h180l203 -343v95v248h180v-180v-68v-180v-90v0z" />
    <glyph glyph-name="M" unicode="M" horiz-adv-x="822" 
d="M608 699h180v-698h-36h-144v180v90v5l-130 -275h-129l-130 275v-5v-90v-180h-180v698h180l195 -412zM709 79v541h-22h-29l-244 -519l-245 519h-29h-22v-541h22v23v248v22v226h15l259 -549l258 549h15v-226v-22v-248v-23h22z" />
    <glyph glyph-name="L" unicode="L" horiz-adv-x="506" 
d="M131 80h79h203v23h-203h-79v248v22v225v23h-23v-541h23v0zM480 182v-181h-270h-181v699h181v-180v-68v-180v-90h270v0z" />
    <glyph glyph-name="W" unicode="W" horiz-adv-x="794" 
d="M390 612h13l115 -543h53l120 565h-23l-115 -542h-16l-116 542h-49l-116 -543h-16l-116 544h-22l120 -566h52l116 543v0zM637 -1h-184l-57 265l-56 -265h-184l-149 699h185l56 -265l56 265h185l56 -265l56 265l186 2z" />
    <glyph glyph-name="X" unicode="X" horiz-adv-x="620" 
d="M613 699l-198 -354l193 -345h-206l-90 161l-90 -161h-206l193 345l-198 354h206l95 -169l95 169h206v0zM325 345l160 286h-26l-147 -263l-147 263h-26l160 -286l-155 -277h26l142 254l142 -254h26l-155 277v0z" />
    <glyph glyph-name="Y" unicode="Y" horiz-adv-x="662" 
d="M423 270v-90v-180h-181v284l-238 414h208l120 -209l121 209h208l-238 -414v-14v0zM344 305l187 326h-26l-161 -281l-12 -19l-172 300h-26l187 -326v-227h23v23v204v0z" />
    <glyph glyph-name="Z" unicode="Z" horiz-adv-x="599" 
d="M105 101v-22h22h391v22h-391v40l368 407v71h-405v-22h26h259h23h74v-40l-367 -407v-49zM574 180v-180h-30h-68h-180h-90h-180v180l305 338h-35h-90h-180v180h548v-116v-64l-305 -338h305z" />
    <glyph glyph-name="K" unicode="K" horiz-adv-x="662" 
d="M521 90h23v135v9v3v3q-3 25 -13 45q-1 3 -3 7q-8 15 -15 23q-24 32 -60 46q34 14 56 47l1 1q2 4 4.5 7.5t4.5 8.5l3 6q0 1 1 2q0 1 0.5 2t0.5 2q8 19 8 34q1 5 1 13v135h-23v-135v-1v-8t-1 -8v-1q-1 -2 -1 -4t-1 -4q-1 -8 -6 -18q-1 -2 -2 -4.5t-2 -5.5q-1 -1 -1.5 -2
t-1.5 -2t-1 -1.5t-1 -1.5q-15 -23 -40 -37t-55 -14h-180h-79v225v22h-22v-540h22v22v248h79h180q30 0 55.5 -12.5t42.5 -34.5q5 -7 9 -13.5t8 -14.5q2 -6 3.5 -12t3.5 -12t2 -12v-13v-135zM575 364q10 -12 19.5 -29t16 -36t10 -38.5t2.5 -35.5v-225h-180v225q0 19 -13.5 32
t-32.5 13h-180v-90v-180h-180v698h180v-180v-68h180q14 0 24 10t10 24v214h181v-214q1 -14 -1.5 -30t-8 -32.5t-12.5 -31.5t-15 -26z" />
    <glyph glyph-name="J" unicode="J" horiz-adv-x="339" 
d="M314 350v-124q0 -47 -17.5 -87.5t-48.5 -71.5t-72 -48.5t-88 -17.5h-67v180h67q19 0 32 13t13 32v90v158v225h181v-225v-124zM235 226v96v152v147h-23v-147v-22v-226q0 -124 -124 -124h-22v-22h22q147 0 147 146z" />
    <glyph glyph-name="I" unicode="I" horiz-adv-x="260" 
d="M222 181v-180h-181v698h181v-180v-67v-181v-90v0zM143 80v22v248v23v225v23h-23v-541h23v0z" />
    <glyph glyph-name="H" unicode="H" horiz-adv-x="626" 
d="M594 182v-180h-181v270h-202v-90v-180h-181v698h181v-180v-68h202v248h181v-180v-68v-180v-90v0zM515 80v23v248v22v226v22h-23v-248h-360v226v22h-23v-541h23v23v248h360v-271h23v0z" />
    <glyph glyph-name="G" unicode="G" horiz-adv-x="595" 
d="M564 184v-181h-316q-47 0 -87.5 17.5t-71.5 48.5t-48.5 72t-17.5 88v248q0 46 17.5 87t48.5 72t71.5 48.5t87.5 17.5h316v-180h-316q-19 0 -32 -13.5t-13 -31.5v-248q0 -19 13 -32t32 -13h135v90h-90v180h271v-270zM518 600v23h-270q-146 0 -146 -146v-248
q0 -147 146 -147h237v102v191h-147v-22h124v-169v-79h-214q-124 0 -124 124v248q0 123 124 123h270z" />
    <glyph glyph-name="F" unicode="F" horiz-adv-x="585" 
d="M573 699v-181h-361v-67h271v-180h-271v-91v-180h-180v699h541v0zM528 597v23h-417v-541h22v22v248h79h226v23h-226h-79v225h395v0z" />
    <glyph glyph-name="E" unicode="E" horiz-adv-x="594" 
d="M114 80h23h394v23h-394v248h79h225v22h-225h-79v225h394v23h-417v-541v0zM576 182v-181h-541v699h541v-180h-360v-68h270v-180h-270v-90h360v0z" />
    <glyph glyph-name="D" unicode="D" horiz-adv-x="606" 
d="M579 476v-248q0 -47 -17.5 -88t-48.5 -72t-72 -48.5t-88 -17.5h-315v181v338v180h315q47 0 88 -17.5t72 -48.5t48.5 -72t17.5 -87zM500 228v248q0 146 -147 146h-236v-541h236q147 0 147 147zM477 476v-248q0 -124 -124 -124h-214v495h214q124 0 124 -123zM399 228v248
q0 18 -13.5 31.5t-32.5 13.5h-135v-338h135q19 0 32.5 13t13.5 32z" />
    <glyph glyph-name="C" unicode="C" horiz-adv-x="588" 
d="M570 180v-181h-316q-47 0 -87.5 17.5t-71.5 48.5t-48.5 72t-17.5 88v248q0 46 17.5 87t48.5 72t71.5 48.5t87.5 17.5h316v-180h-316q-18 0 -31.5 -13t-13.5 -32v-248q0 -19 13.5 -32t31.5 -13h316zM525 78v23h-271q-124 0 -124 124v248q0 124 124 124h271v22h-271
q-146 0 -146 -146v-248q0 -147 146 -147h271z" />
    <glyph glyph-name="B" unicode="B" horiz-adv-x="658" 
d="M115 81h22h282q28 0 53.5 10t45 28t32 42t15.5 52q1 12 0 25v4v3q-1 2 -1 4.5t-1 5.5t-1 5.5t-2 5.5v1q-2 6 -4 11q0 2 -0.5 3t-0.5 2q-2 2 -2.5 4.5t-2.5 4.5q-6 14 -15 25q-25 32 -61 46q17 7 31.5 19.5t25.5 28.5q3 5 5.5 9t4.5 9q2 3 4 9q11 24 9 49q0 32 -15 62
t-44 50q-14 11 -36.5 17.5t-39.5 5.5h-304v-541zM596 367q11 -12 20 -29.5t16 -36.5t10 -38t2 -35q0 -47 -17.5 -88t-48.5 -72t-72 -48.5t-87 -17.5h-383v699h383q129 0 189 -114t-12 -220zM543 228q0 -26 -10 -48.5t-26.5 -39.5t-39.5 -26.5t-48 -9.5h-282v248h79h203
q3 0 8 -0.5t8 -0.5q23 -3 43 -14.5t34.5 -28t22.5 -37t8 -43.5zM464 228q0 19 -13 32t-32 13h-203v-90h203q19 0 32 13t13 32zM524 446q-12 -32 -40.5 -52t-64.5 -20h-203h-79v225h282q14 2 33 -4t30 -15q24 -17 37 -41.5t13 -51.5q0 -7 -2 -17q0 -5 -1 -8q-1 -2 -1 -4
t-1 -4v-1q-2 -4 -3 -7zM453 487q0 14 -10 24t-24 10h-203v-68h203q14 0 24 10t10 24z" />
    <glyph glyph-name="A" unicode="A" horiz-adv-x="616" 
d="M363 696q46 0 87 -17.5t72 -48.5t48.5 -72t17.5 -87v-471h-79v471v5v5q-1 3 -1 9q-4 27 -16.5 50t-32 40.5t-44 27t-52.5 9.5h-113q-28 0 -53 -9.5t-44.5 -27t-32 -40.5t-15.5 -50q-1 -3 -1 -7q0 -2 -0.5 -2.5t-0.5 -2.5v-7v-471h-78v471q0 46 17.5 87t48 72t71.5 48.5
t88 17.5h113zM408 284h78v-284h-78v204h-203v-204h-79v284h79h203zM486 471v-84v-20v-23v-37h-78h-203h-79v2v35v23v20v84q0 25 10 47.5t26.5 39.5t39 26.5t48.5 9.5h113q24 0 45 -8.5t37 -22.5t26.5 -34t13.5 -42q1 -2 1 -8v-5v-3zM408 471q0 19 -13.5 32t-31.5 13h-113
q-19 0 -32 -13t-13 -32v-84h203v84z" />
    <glyph glyph-name="V" unicode="V" horiz-adv-x="612" 
d="M292 69h36l169 564h-24l-161 -541h-5l-167 541h-24l176 -564v0zM608 700l-224 -699h-155l-224 699h193l111 -362l106 362h193v0z" />
    <glyph glyph-name="zero" unicode="0" horiz-adv-x="587" 
d="M566 475v-248q0 -47 -17.5 -87.5t-48.5 -71.5t-72 -48.5t-87 -17.5h-55h-39q-47 0 -87.5 17.5t-71.5 48.5t-48.5 71.5t-17.5 87.5v248q0 46 17.5 87t48.5 72t71.5 48.5t87.5 17.5h39h55q46 0 87 -17.5t72 -48.5t48.5 -72t17.5 -87zM487 227v248q0 147 -146 147h-55h-39
q-146 0 -146 -147v-248q0 -146 146 -146h39h55q146 0 146 146zM464 475v-248q0 -124 -123 -124h-55h-39q-124 0 -124 124v248q0 124 124 124h39h55q123 0 123 -124zM386 227v248q0 19 -13 32t-32 13h-55h-39q-19 0 -32 -13t-13 -32v-248q0 -19 13 -32t32 -13h39h55
q19 0 32 13t13 32z" />
    <glyph glyph-name="one" unicode="1" horiz-adv-x="329" 
d="M296 179v-180h-181v519h-90v180h90h181v-180v-68v-180v-91v0zM217 78v23v248v22v225v23h-23h-101v-23h101v-518h23v0z" />
    <glyph glyph-name="two" unicode="2" horiz-adv-x="589" 
d="M458 486v-23v-1q0 -5 -0.5 -11t-1.5 -11q-2 -5 -3.5 -10.5t-3.5 -10.5q-4 -10 -7 -14q-2 -4 -3 -5q-15 -23 -39.5 -36.5t-53.5 -13.5h-95h-4q-28 0 -57 -13q-23 -9 -43 -30q-2 -1 -2.5 -2t-2.5 -3q-3 -3 -4 -5l-1 -1l-2 -2q-1 -1 -1 -2q-9 -11 -14 -21q0 -1 -0.5 -1.5
t-0.5 -2.5q-1 -1 -1 -1.5t-1 -1.5q0 -1 -0.5 -1.5t-0.5 -1.5q-10 -22 -11 -42q-1 -1 -1 -3v-8v-4v-23v-101h147h95h144v22h-144h-95h-124v79v23v1v12t2 12q1 2 1 3t1 3q0 2 0.5 3t0.5 3q1 3 2 5.5t2 5.5q2 3 3 5.5t3 5.5q4 9 11 17q17 22 42.5 35t55.5 13h95q29 0 55 12
q1 0 1.5 0.5t1.5 0.5q26 12 46 36q1 2 2 2.5t2 2.5t4 5q2 4 4.5 8t4.5 9l3 6q0 1 1 1q0 3 2 5q7 19 7 34q1 5 1 13v23q0 28 -10.5 52.5t-29 43t-43 29t-52.5 10.5h-264v-23h1h263q23 0 43.5 -9t35.5 -24t24 -35.5t9 -43.5zM560 486v-23q0 -44 -17 -83t-46 -68t-68 -46
t-83 -17h-95q-19 0 -32 -13t-13 -32v-23h45h119h146h41v-180h-211h-95h-226v180v23q0 46 17.5 87t48.5 72t72 48.5t88 17.5h95q14 0 23.5 10t9.5 24v23q0 14 -9.5 23.5t-23.5 9.5h-265h-50v181h315q44 0 83 -17t68 -46t46 -68t17 -83z" />
    <glyph glyph-name="three" unicode="3" horiz-adv-x="551" 
d="M401 429q-15 -26 -40.5 -41.5t-57.5 -15.5h-158v-22h158q3 0 8 -0.5t8 -0.5q32 -5 57 -23.5t38 -45.5q2 -3 2.5 -5.5t2.5 -4.5q1 -3 1.5 -5.5t1.5 -5.5q5 -18 5 -33q0 -6 -1 -8v-8q-3 -23 -13.5 -42.5t-27 -34t-37.5 -23t-45 -8.5h-225v-23h225q28 0 52.5 10t44 27
t32.5 40.5t16 50.5q0 2 0.5 3.5t0.5 3.5v4q1 5 0 11v9q0 5 -1 8v1q0 3 -1 5l-3 12q0 2 -2 6q-1 4 -3 10q-1 2 -2 4.5t-2 4.5q-4 8 -7.5 14.5t-8.5 11.5l-1 1q-12 15 -27 26.5t-33 18.5q17 7 31.5 19.5t25.5 28.5q4 6 5 9q4 6 5 9q14 29 13 58q0 32 -15 62t-44 50
q-14 10 -36.5 17t-39.5 6h-225v-23h225q14 1 33 -4.5t30 -14.5q24 -17 36.5 -41.5t12.5 -51.5v-11.5t-2 -11.5q0 -2 -1 -4q0 -2 -0.5 -3t-0.5 -3l-1 -1q0 -1 -2 -7q-1 -2 -1.5 -3.5t-1.5 -3.5l-2 -4zM480 365q11 -12 20 -29.5t16 -36.5t10 -38t2 -35q0 -47 -17.5 -88
t-48.5 -72t-72 -48.5t-87 -17.5h-271v181h271q19 0 32 13t13 32q0 18 -13 31.5t-32 13.5h-203v180h203q14 0 24 10t10 24t-10 24t-24 10h-271v180h271q13 1 29.5 -1.5t33 -8t31.5 -12.5t26 -15q37 -25 59.5 -60.5t30.5 -76t0 -82t-33 -78.5z" />
    <glyph glyph-name="four" unicode="4" horiz-adv-x="602" 
d="M147 424q-1 1 -1 1.5t-1 1.5q-2 3 -4 6.5t-4 7.5q-2 5 -3 9l-2 8q-3 13 -3 27v136h-23v-136v-9t1 -8q1 -17 9 -34l1 -2q5 -14 12 -22q6 -8 8 -11q10 -11 21 -20.5t24 -14.5q2 -2 4 -2q25 -12 55 -12h147h79v-248v-22h22v541h-22v-23v-225h-79h-147q-29 0 -54 14t-40 37z
M568 699v-698h-180v180v90h-147q-33 0 -63.5 9.5t-56 27t-45.5 41.5t-32 53q-3 7 -5.5 14.5t-4.5 15.5q-2 6 -2 10q-5 23 -5 43v214h180v-214q0 -14 10 -23.5t24 -9.5h147v67v180h180z" />
    <glyph glyph-name="five" unicode="5" horiz-adv-x="636" 
d="M484 281q27 -51 0 -108q-34 -70 -112 -70h-250h-23v-23h23h250h9q79 5 116 71q2 2 4 6l3 6q2 4 3 7q32 72 -13 139l-5 5q0 1 -2 3q0 1 -2 3q-18 23 -43 36l-6 3q-2 0 -2 1q-31 13 -62 13h-155h-78v226h381v22h-404v-270h23h78h155q57 0 93 -42q2 -3 6 -7q2 -2 2.5 -3.5
t1.5 -3.5q1 0 1 -0.5t1 -0.5l3 -6q2 -2 2.5 -3.5t1.5 -3.5zM598 227q0 -41 -14 -78l-9 -21q-2 -3 -3.5 -6.5t-3.5 -6.5q-1 -2 -1.5 -2.5t-1.5 -2.5q-29 -47 -76 -76t-105 -32q-3 0 -6 -0.5t-6 -0.5h-335v181h180h155q45 0 45 45t-45 45h-155h-180v428h551v-180h-371v-68h155
q54 0 100 -23t77 -63l4 -4q21 -29 33 -63t12 -72z" />
    <glyph glyph-name="six" unicode="6" horiz-adv-x="589" 
d="M459 226v-8q0 -5 -1 -8q-3 -23 -13.5 -42.5t-27 -34t-37.5 -23t-45 -8.5h-83q-24 0 -45 8.5t-37.5 23t-27 34t-13.5 42.5q-1 3 -1 8v8v124h124h83q3 0 8 -0.5t8 -0.5q52 -8 82 -47q7 -9 14 -22q0 -1 1 -2q1 -2 1.5 -4t1.5 -4q2 -4 2 -6q1 -2 1 -2.5t1 -2.5q2 -8 3 -16.5
t1 -16.5zM380 226q0 19 -13 32t-32 13h-83q-19 0 -32 -13t-13 -32t13 -32t32 -13h83q19 0 32 13t13 32zM548 519h-296h-12q-14 0 -23.5 -10t-9.5 -24v-34h45h83q68 0 122 -35t81 -92q2 -3 3 -5.5t2 -5.5q1 -2 2 -4.5t2 -5.5l3 -9q1 -2 1 -3.5t1 -3.5q2 -4 2 -7q2 -6 2 -9
q5 -23 5 -45q0 -47 -17.5 -88t-48.5 -71.5t-72 -48t-88 -17.5h-83q-47 0 -88 17.5t-72 48t-48.5 71.5t-17.5 88v259q0 44 17 83t46 68t68 46t83 17h12h294zM128 410v75q0 23 9 43.5t24 36t35.5 24.5t43.5 9h12h234v22h-234h-12q-28 0 -52.5 -10.5t-43 -29t-29 -43
t-10.5 -52.5v-259v-1v-3q0 -3 0.5 -5.5t0.5 -5.5v-4q4 -27 16.5 -50.5t32 -40.5t44.5 -27t53 -10h83q28 0 53 10t44.5 27t32 40.5t16.5 50.5v7q1 2 1 4v12v8q-1 2 -1 7v2q-1 2 -1 6q-1 2 -1 3.5t-1 3.5t-1.5 5t-1.5 5q-2 6 -3 10q-1 2 -1.5 4t-2.5 4q-1 2 -1.5 4t-2.5 4
q-6 11 -11 18q-2 0 -2 2l-1 1q-2 3 -6 7q-2 2 -2.5 3t-2.5 3q-9 8 -19 15.5t-21 12.5l-4 2l-4 2q-26 10 -56 10h-83h-124v38z" />
    <glyph glyph-name="seven" unicode="7" horiz-adv-x="604" 
d="M473 700h23h25h53h1v-180l-132 -275l-77 -161l-40 -82h-200l249 518h-350v180h158h67h181h42v0zM496 538v84h-144h-23h-225h-23v-23h392v-56l-221 -462h25l162 339l20 40l37 78v0z" />
    <glyph glyph-name="eight" unicode="8" horiz-adv-x="594" 
d="M351 79q28 0 53 10t44.5 28t32 42t15.5 51q1 7 1.5 13t-0.5 13v4q0 2 -1 2q0 7 -1 10l-3 12v1q-2 6 -4 11q0 1 -2 5q-2 6 -4 8q-3 8 -7 14.5t-8 11.5q-25 32 -61 46q17 7 31 19.5t25 28.5l6 9q19 32 18 67q0 32 -15.5 61.5t-44.5 49.5q-14 11 -36 18t-39 6h-113
q-28 0 -52.5 -10.5t-43 -29t-29 -43t-10.5 -52.5v-13q1 -9 2.5 -17.5t5.5 -16.5q0 -1 2 -5q1 -2 1.5 -3.5t1.5 -3.5q2 -5 4.5 -9t4.5 -7l1 -1q11 -16 25.5 -28.5t31.5 -19.5q-21 -8 -38 -22t-29 -33l-1 -1l-6 -9q0 -1 -1 -2q-1 -4 -4 -8q0 -2 -0.5 -2.5t-0.5 -1.5
q-3 -5 -3 -8q-1 -1 -1 -2q-11 -32 -7 -63q4 -28 17.5 -54t38.5 -45q7 -7 18.5 -13t23.5 -10t24.5 -6.5t23.5 -1.5h113zM528 365q10 -12 19.5 -29.5t16 -36.5t10 -38.5t2.5 -35.5q0 -47 -17.5 -87.5t-48.5 -71.5t-72 -48.5t-87 -17.5h-113q-16 -1 -35.5 2.5t-38.5 10
t-36 15.5t-29 20q-37 29 -58 68.5t-26.5 82.5t6 86t40.5 80q-8 10 -15 25t-12.5 31.5t-8 33t-1.5 30.5q0 44 17 83t46 68t68 46t83 17h113q13 1 29.5 -1.5t33 -8t31.5 -12.5t26 -15q37 -25 59.5 -61t30.5 -76.5t0 -82t-33 -77.5zM474 226v-1v-7q0 -5 -1 -8v-1
q-3 -23 -13.5 -42.5t-26.5 -33.5t-37 -22.5t-45 -8.5h-113q-18 -2 -40.5 6t-36.5 20q-40 32 -46 81q-1 3 -1 8v8v10q1 3 1 9q1 1 1 3t0.5 4t0.5 4l2 6t2 5l3 9q2 2 2.5 4.5t2.5 4.5q2 5 5 9t6 9q17 22 42.5 34.5t55.5 12.5h113h8t8 -1q25 -3 46 -15t35 -31q4 -5 7.5 -10.5
t6.5 -11.5l1 -2q2 -6 3 -8q1 -3 3 -7q0 -3 1 -4q4 -15 4 -33zM396 225q0 19 -13 32.5t-32 13.5h-113q-19 0 -32 -13.5t-13 -32.5t13 -32t32 -13h113q19 0 32 13t13 32zM414 578q24 -17 36.5 -41.5t12.5 -51.5q0 -14 -3 -26q0 -3 -2 -7v-1q-1 -2 -1 -3.5t-1 -3.5q-1 -4 -4 -8
q-2 -4 -4 -7.5t-4 -7.5q-15 -22 -39.5 -35.5t-53.5 -13.5h-113q-29 0 -53.5 13.5t-39.5 35.5q-2 4 -3 5q-2 4 -4 7.5t-4 7.5q-5 9 -6 21q-1 2 -1 5q-1 5 -1.5 9t-0.5 9q0 23 9 43.5t24.5 35.5t36 24t43.5 9h113q14 1 33 -5t30 -14zM384 485q0 14 -9.5 23.5t-23.5 9.5h-113
q-14 0 -24 -9.5t-10 -23.5t10 -24t24 -10h113q14 0 23.5 10t9.5 24z" />
    <glyph glyph-name="nine" unicode="9" horiz-adv-x="580" 
d="M122 473v8q0 5 1 8q3 23 13.5 42.5t27 34t37.5 23t45 8.5h83q24 0 45 -8.5t37.5 -23t27 -34t13.5 -42.5q1 -3 1 -8v-8v-124h-124h-83q-3 0 -8 0.5t-8 0.5q-52 8 -82 47q-8 9 -14 22q0 1 -1 2l-3 8q-2 4 -2 6l-2 5q-2 8 -3 16.5t-1 16.5zM201 473q0 -19 13 -32t32 -13h83
q19 0 32 13t13 32t-13 32t-32 13h-83q-19 0 -32 -13t-13 -32zM33 180h296h12q14 0 23.5 10t9.5 24v34h-45h-83q-68 0 -122 35t-81 92q-2 3 -3 5.5t-2 5.5q-1 2 -2 4.5t-2 5.5l-3 9l-2 7q-2 4 -2 7q-2 6 -2 9q-5 23 -5 45q0 47 17.5 88t48.5 71.5t72 48t88 17.5h83
q47 0 88 -17.5t72 -48t48.5 -71.5t17.5 -88v-259q0 -44 -17 -83t-46 -68t-68 -46t-83 -17h-12h-294zM453 289v-75q0 -23 -9 -43.5t-24 -36t-35.5 -24.5t-43.5 -9h-12h-234v-22h234h12q28 0 52.5 10.5t43 29t29 43t10.5 52.5v259v1v3q0 3 -0.5 5.5t-0.5 5.5v4
q-4 27 -16.5 50.5t-32 40.5t-44.5 27t-53 10h-83q-28 0 -53 -10t-44.5 -27t-32 -40.5t-16.5 -50.5v-7q-1 -2 -1 -4v-12v-8q1 -2 1 -7v-2q1 -2 1 -6l2 -7l3 -10l3 -10l4 -8l4 -8q6 -11 11 -18q2 0 2 -2l1 -1l6 -7l5 -6q9 -8 19 -15.5t21 -12.5l8 -4q26 -10 56 -10h83h124v-38
z" />
    <glyph glyph-name="period" unicode="." horiz-adv-x="240" 
d="M110 69h23v22h-23v-22v0zM210 159v-158h-181v158h181v0z" />
    <glyph glyph-name="comma" unicode="," horiz-adv-x="231" 
d="M127 48v44h-23v-88zM204 159v-157l-90 -136h-90v136v157h180z" />
    <glyph glyph-name="exclam" unicode="!" horiz-adv-x="240" 
d="M109 227h23v124v22v226v22h-23v-394v0zM211 193h-181v507h181v-180v-68v-180v-79v0zM111 92v-23h23v23h-23v0zM211 159v-157h-181v157h181v0z" />
    <glyph glyph-name="question" unicode="?" horiz-adv-x="591" 
d="M224 701h133q45 0 84 -17t68 -46t46 -68t17 -83v-23q0 -44 -17 -83t-46 -68t-68 -46t-84 -17q-18 0 -31.5 -13t-13.5 -32v-11h-77v34q1 2 1 3.5t1 3.5q0 2 0.5 3t0.5 3q1 1 1 2q3 10 9 21q1 1 1 1.5t1 1.5q2 5 5 8.5t5 6.5q17 22 42.5 35t54.5 12q31 0 59 14q25 10 46 36
q3 3 4 5q1 1 3 5h1v1q2 3 4.5 7t4.5 9q1 2 2 3.5t1 3.5q2 4 2 5q4 8 5.5 16.5t2.5 17.5q1 4 1 12v23q0 28 -10.5 52.5t-29 43t-43.5 29t-53 10.5h-133q-16 1 -33 -3.5t-32.5 -13t-28.5 -20.5t-20 -26h27v-38h-124q5 38 24.5 71.5t48 57.5t64 38t74.5 13zM235 228v-34h-103
v11q0 47 17.5 88t48.5 72t71.5 48.5t87.5 17.5q14 0 24 9.5t10 23.5v23q0 14 -10 24t-24 10h-133h-24h-63v38q14 18 39 30t47 11h1h133q24 0 44.5 -9t35.5 -24.5t24 -36t9 -43.5v-23v-1q0 -12 -3 -24v-1q0 -1 -0.5 -1.5t-0.5 -1.5q-1 -7 -5 -14q-2 -5 -4.5 -9.5t-5.5 -9.5
v-1q-16 -22 -40.5 -35.5t-53.5 -13.5h-3q-15 0 -28.5 -3.5t-26.5 -8.5q-1 0 -1 -0.5t-1 -0.5q-20 -9 -41 -28q-2 0 -3 -3l-4 -4q-5 -5 -7 -8q-2 -2 -3 -4q-1 -1 -3 -5q-2 -2 -4 -6q-4 -6 -5 -9l-1 -1l-3 -6q0 -1 -0.5 -1.5t-0.5 -1.5q-1 -1 -1 -3l-1 -1q-2 -5 -3 -9l-2 -8
q-1 -2 -1 -7q-1 -2 -1 -6h22zM235 70v22h-22v-22h22zM312 160v-158h-180v158h180z" />
    <glyph glyph-name="colon" unicode=":" horiz-adv-x="240" 
d="M110 69h23v22h-23v-22v0zM210 159v-158h-181v158h181v0zM109 611h23v22h-23v-22zM209 701v-158h-181v158h181z" />
    <glyph glyph-name="semicolon" unicode=";" horiz-adv-x="240" 
d="M109 611h23v22h-23v-22zM209 701v-158h-181v158h181zM127 49v43h-23v-88zM204 159v-157l-90 -136h-90v136v157h180z" />
    <glyph glyph-name="slash" unicode="/" horiz-adv-x="533" 
d="M523 700l-310 -699h-197l310 699h197v0zM162 80l240 541h-25l-240 -541h25v0z" />
    <glyph glyph-name="a" unicode="a" horiz-adv-x="616" 
d="M363 696q46 0 87 -17.5t72 -48.5t48.5 -72t17.5 -87v-471h-79v471v5v5q-1 3 -1 9q-4 27 -16.5 50t-32 40.5t-44 27t-52.5 9.5h-113q-28 0 -53 -9.5t-44.5 -27t-32 -40.5t-15.5 -50q-1 -3 -1 -7q0 -2 -0.5 -2.5t-0.5 -2.5v-7v-471h-78v471q0 46 17.5 87t48 72t71.5 48.5
t88 17.5h113zM408 284h78v-284h-78v204h-203v-204h-79v284h79h203zM486 471v-84v-20v-23v-37h-78h-203h-79v2v35v23v20v84q0 25 10 47.5t26.5 39.5t39 26.5t48.5 9.5h113q24 0 45 -8.5t37 -22.5t26.5 -34t13.5 -42q1 -2 1 -8v-5v-3zM408 471q0 19 -13.5 32t-31.5 13h-113
q-19 0 -32 -13t-13 -32v-84h203v84z" />
    <glyph glyph-name="b" unicode="b" horiz-adv-x="658" 
d="M115 81h22h282q28 0 53.5 10t45 28t32 42t15.5 52q1 12 0 25v4v3q-1 2 -1 4.5t-1 5.5t-1 5.5t-2 5.5v1q-2 6 -4 11q0 2 -0.5 3t-0.5 2q-2 2 -2.5 4.5t-2.5 4.5q-6 14 -15 25q-25 32 -61 46q17 7 31.5 19.5t25.5 28.5q3 5 5.5 9t4.5 9q2 3 4 9q11 24 9 49q0 32 -15 62
t-44 50q-14 11 -36.5 17.5t-39.5 5.5h-304v-541zM596 367q11 -12 20 -29.5t16 -36.5t10 -38t2 -35q0 -47 -17.5 -88t-48.5 -72t-72 -48.5t-87 -17.5h-383v699h383q129 0 189 -114t-12 -220zM543 228q0 -26 -10 -48.5t-26.5 -39.5t-39.5 -26.5t-48 -9.5h-282v248h79h203
q3 0 8 -0.5t8 -0.5q23 -3 43 -14.5t34.5 -28t22.5 -37t8 -43.5zM464 228q0 19 -13 32t-32 13h-203v-90h203q19 0 32 13t13 32zM524 446q-12 -32 -40.5 -52t-64.5 -20h-203h-79v225h282q14 2 33 -4t30 -15q24 -17 37 -41.5t13 -51.5q0 -7 -2 -17q0 -5 -1 -8q-1 -2 -1 -4
t-1 -4v-1q-2 -4 -3 -7zM453 487q0 14 -10 24t-24 10h-203v-68h203q14 0 24 10t10 24z" />
    <glyph glyph-name="c" unicode="c" horiz-adv-x="588" 
d="M570 180v-181h-316q-47 0 -87.5 17.5t-71.5 48.5t-48.5 72t-17.5 88v248q0 46 17.5 87t48.5 72t71.5 48.5t87.5 17.5h316v-180h-316q-18 0 -31.5 -13t-13.5 -32v-248q0 -19 13.5 -32t31.5 -13h316zM525 78v23h-271q-124 0 -124 124v248q0 124 124 124h271v22h-271
q-146 0 -146 -146v-248q0 -147 146 -147h271z" />
    <glyph glyph-name="d" unicode="d" horiz-adv-x="606" 
d="M579 476v-248q0 -47 -17.5 -88t-48.5 -72t-72 -48.5t-88 -17.5h-315v181v338v180h315q47 0 88 -17.5t72 -48.5t48.5 -72t17.5 -87zM500 228v248q0 146 -147 146h-236v-541h236q147 0 147 147zM477 476v-248q0 -124 -124 -124h-214v495h214q124 0 124 -123zM399 228v248
q0 18 -13.5 31.5t-32.5 13.5h-135v-338h135q19 0 32.5 13t13.5 32z" />
    <glyph glyph-name="e" unicode="e" horiz-adv-x="594" 
d="M114 80h23h394v23h-394v248h79h225v22h-225h-79v225h394v23h-417v-541v0zM576 182v-181h-541v699h541v-180h-360v-68h270v-180h-270v-90h360v0z" />
    <glyph glyph-name="f" unicode="f" horiz-adv-x="585" 
d="M573 699v-181h-361v-67h271v-180h-271v-91v-180h-180v699h541v0zM528 597v23h-417v-541h22v22v248h79h226v23h-226h-79v225h395v0z" />
    <glyph glyph-name="g" unicode="g" horiz-adv-x="595" 
d="M564 184v-181h-316q-47 0 -87.5 17.5t-71.5 48.5t-48.5 72t-17.5 88v248q0 46 17.5 87t48.5 72t71.5 48.5t87.5 17.5h316v-180h-316q-19 0 -32 -13.5t-13 -31.5v-248q0 -19 13 -32t32 -13h135v90h-90v180h271v-270zM518 600v23h-270q-146 0 -146 -146v-248
q0 -147 146 -147h237v102v191h-147v-22h124v-169v-79h-214q-124 0 -124 124v248q0 123 124 123h270z" />
    <glyph glyph-name="h" unicode="h" horiz-adv-x="626" 
d="M594 182v-180h-181v270h-202v-90v-180h-181v698h181v-180v-68h202v248h181v-180v-68v-180v-90v0zM515 80v23v248v22v226v22h-23v-248h-360v226v22h-23v-541h23v23v248h360v-271h23v0z" />
    <glyph glyph-name="i" unicode="i" horiz-adv-x="260" 
d="M222 181v-180h-181v698h181v-180v-67v-181v-90v0zM143 80v22v248v23v225v23h-23v-541h23v0z" />
    <glyph glyph-name="j" unicode="j" horiz-adv-x="339" 
d="M314 350v-124q0 -47 -17.5 -87.5t-48.5 -71.5t-72 -48.5t-88 -17.5h-67v180h67q19 0 32 13t13 32v90v158v225h181v-225v-124zM235 226v96v152v147h-23v-147v-22v-226q0 -124 -124 -124h-22v-22h22q147 0 147 146z" />
    <glyph glyph-name="k" unicode="k" horiz-adv-x="662" 
d="M521 90h23v135v9v3v3q-3 25 -13 45q-1 3 -3 7q-8 15 -15 23q-24 32 -60 46q34 14 56 47l1 1q2 4 4.5 7.5t4.5 8.5l3 6q0 1 1 2q0 1 0.5 2t0.5 2q8 19 8 34q1 5 1 13v135h-23v-135v-1v-8t-1 -8v-1q-1 -2 -1 -4t-1 -4q-1 -8 -6 -18q-1 -2 -2 -4.5t-2 -5.5q-1 -1 -1.5 -2
t-1.5 -2t-1 -1.5t-1 -1.5q-15 -23 -40 -37t-55 -14h-180h-79v225v22h-22v-540h22v22v248h79h180q30 0 55.5 -12.5t42.5 -34.5q5 -7 9 -13.5t8 -14.5q2 -6 3.5 -12t3.5 -12t2 -12v-13v-135zM575 364q10 -12 19.5 -29t16 -36t10 -38.5t2.5 -35.5v-225h-180v225q0 19 -13.5 32
t-32.5 13h-180v-90v-180h-180v698h180v-180v-68h180q14 0 24 10t10 24v214h181v-214q1 -14 -1.5 -30t-8 -32.5t-12.5 -31.5t-15 -26z" />
    <glyph glyph-name="l" unicode="l" horiz-adv-x="506" 
d="M131 80h79h203v23h-203h-79v248v22v225v23h-23v-541h23v0zM480 182v-181h-270h-181v699h181v-180v-68v-180v-90h270v0z" />
    <glyph glyph-name="m" unicode="m" horiz-adv-x="822" 
d="M608 699h180v-698h-36h-144v180v90v5l-130 -275h-129l-130 275v-5v-90v-180h-180v698h180l195 -412zM709 79v541h-22h-29l-244 -519l-245 519h-29h-22v-541h22v23v248v22v226h15l259 -549l258 549h15v-226v-22v-248v-23h22z" />
    <glyph glyph-name="n" unicode="n" horiz-adv-x="612" 
d="M486 351v-248h-20l-306 518h-34h-11h-12v-541h23v23v248v22v226h21l306 -519h33h23v23v248v22v226v22h-23v-248v-22v0zM588 182v-181h-180l-203 344v-73v-90v-68v-113h-180v699h180l203 -343v95v248h180v-180v-68v-180v-90v0z" />
    <glyph glyph-name="p" unicode="p" horiz-adv-x="622" 
d="M512 476v-1v-9q0 -3 -0.5 -5t-0.5 -4t-1 -3q0 -5 -1 -7t-1 -4t-1 -4t-1 -2.5t-1 -2.5v-1q-2 -4 -3 -7q-3 -7 -7 -13.5t-9 -13.5q-17 -22 -42.5 -34.5t-55.5 -12.5h-175h-79v248h254q18 1 40.5 -7t36.5 -20q40 -32 46 -81q1 -2 1 -8v-5v-3zM433 476q0 18 -13 31.5
t-32 13.5h-175v-90h175q19 0 32 13t13 32zM388 701q12 0 23.5 -1.5t22.5 -3.5q2 0 3.5 -0.5t3.5 -0.5q2 -1 3.5 -1t3.5 -1l9 -3q4 -1 7.5 -2t8.5 -3q1 -1 1.5 -1t1.5 -1q2 -1 5 -2t5 -2q22 -10 41 -26q1 0 1 -0.5t1 -0.5q5 -5 8 -7l1 -1q2 -2 4.5 -4t4.5 -4q6 -7 12 -13
t11 -14q2 -2 2.5 -3.5t2.5 -3.5q0 -1 1 -1q2 -2 2.5 -4.5t2.5 -4.5q5 -8 10 -19q2 -2 2.5 -4.5t2.5 -5.5q4 -7 5 -14q2 -4 4 -12l3 -9l3 -15q0 -3 0.5 -6t0.5 -7q1 -2 1 -8q1 -4 1 -8v-8v-1q0 -7 -1 -11v-9q0 -2 -0.5 -3.5t-0.5 -3.5t-0.5 -4.5t-0.5 -4.5q-5 -27 -15 -51
l-3 -6q-5 -13 -12 -23l-6 -9l-6 -9q-1 -1 -1.5 -2t-1.5 -2q-32 -40 -78 -63.5t-100 -23.5h-175v-67v-181h-180v699h355zM530 440q6 23 5 43q0 3 -1 4v3v4v1q-1 4 -3 14q-2 5 -3.5 11t-3.5 11q-1 2 -1.5 3.5t-1.5 3.5l-3.5 7l-3.5 7q-2 2 -4 6q-3 4 -6.5 8t-6.5 8l-2 2l-3 3
v1q-3 2 -5.5 4.5t-5.5 4.5l-2 2q-10 8 -27 17q-4 2 -7 3q-2 0 -6 2q-10 4 -15 5q-9 2 -18 3.5t-17 0.5h-1h-254h-22v-541h22v23v36v189h79h175q28 0 56 11q1 0 3 2q30 12 53 39q1 1 1.5 2t2.5 2v1q4 4 5 7h1v1q1 1 1 1.5t1 1.5q0 1 2 3q0 1 0.5 1t0.5 1l1 2l1 2l3 6
q2 2 2.5 5t2.5 5q1 2 1.5 5t1.5 5q2 4 2 7v1z" />
    <glyph glyph-name="r" unicode="r" horiz-adv-x="613" 
d="M491 490q1 -3 1 -8v-8v-10q0 -2 -0.5 -4.5t-0.5 -4.5l-1 -2q0 -2 -0.5 -4t-0.5 -4q-2 -8 -4 -12q-2 -6 -3 -8q-1 -4 -5 -10q-4 -9 -11 -17q-17 -22 -42.5 -35t-55.5 -13h-150h-79v248h229q18 1 40.5 -7t36.5 -19q20 -16 31.5 -37.5t14.5 -44.5zM413 474q0 19 -13 32
t-32 13h-150v-90h150q19 0 32 13t13 32zM514 490q-1 5 -1.5 9t-1.5 8q-3 13 -7 23l-3 6q-2 4 -4 7t-4 7l-3 6q-3 5 -6.5 8.5t-6.5 8.5q-2 0 -2 2l-3 3h-1q-6 6 -10 9l-2 2q-10 8 -27 17q-4 2 -7 3l-6 3q-4 1 -7.5 2t-7.5 2q-20 5 -35 5h-1h-229h-22v-541h22v22v36v190h79h76
l123 -248h25l-123 248h49q31 0 55 10l4 2q32 13 54 41q3 3 4 5l1 1q2 2 4 6q1 2 1.5 2.5t1.5 2.5q3 3 4 5v2q1 0 1 1q1 2 2 4.5t2 4.5q1 1 1 1.5t1 1.5q0 3 2 5v2l1 2q0 1 0.5 1.5t0.5 1.5q5 14 6.5 29t-0.5 30v1zM368 699q6 2 11 0q21 0 44.5 -6t44.5 -17q22 -11 39 -25
l2 -1q3 -3 9 -7q48 -44 67 -106v-1l3 -12v-1q5 -20 5 -37q1 -15 0 -30q-1 -7 -1.5 -13t-2.5 -13v-2q-1 -2 -1 -4.5t-1 -4.5t-1 -4t-1 -4l-3 -9q-2 -6 -4 -9q0 -2 -1 -4l-2 -4q-10 -27 -29 -50q-42 -53 -106 -74l129 -260h-201l-123 248h-27v-68v-180h-180v698h330z" />
    <glyph glyph-name="s" unicode="s" horiz-adv-x="603" 
d="M580 273q4 -20 4 -46q0 -47 -18 -87.5t-48.5 -71.5t-72 -48.5t-87.5 -17.5h-331l-1 180h333q19 0 32 13t13 32t-13 32t-32 13h-129q-44 0 -83 17t-68 46t-46 68t-17 83q0 45 17 84t46 68t68 45.5t83 16.5h334l2 -180h-58h-25h-253q-14 0 -24 -10t-10 -24t10 -24t24 -10
h129q54 0 100 -23t77 -63q16 -19 26 -41q2 -2 2.5 -5t2.5 -5q0 -1 0.5 -2t0.5 -2l6 -15q2 -6 2 -9q1 -2 1.5 -3.5t0.5 -3.5q1 -2 1 -3.5t1 -3.5zM505 220q1 4 1 12q0 5 -1 7q0 5 -1 8v1q0 4 -1 5q0 2 -0.5 3.5t-0.5 3.5q0 1 -0.5 2t-0.5 2l-1 2q0 3 -1 5t-1.5 3.5t-1.5 3.5
q0 2 -0.5 2.5t-0.5 1.5l-1 1q0 2 -0.5 2.5t-0.5 1.5q-1 1 -1 2t-1 2q-4 8 -7 12l-3 6q-2 2 -3 3.5t-2 3.5q-2 1 -2.5 2t-1.5 2q-6 8 -9 11q-21 21 -45 31q-3 0 -4 1q-27 11 -55 11h-129q-29 0 -53.5 13t-40.5 36v1q-5 8 -10 19q-4 7 -5 13q0 2 -0.5 2.5t-0.5 1.5v1
q-3 12 -3 25q0 24 9 44.5t24 35.5t35.5 24t44.5 9h282v22h-282q-28 0 -53 -10.5t-43.5 -29t-29 -43t-10.5 -52.5q0 -8 1 -12q1 -9 2.5 -17.5t5.5 -16.5q0 -3 2 -5q0 -2 1 -4l2 -4q4 -9 9 -15v-1h1l3 -6q2 -1 4 -5l9 -9q17 -17 36 -26q2 -1 2.5 -1t2.5 -1q24 -12 55 -12h129
h8t8 -1q32 -5 57 -23t39 -46q12 -24 12 -54v-8q0 -2 -0.5 -3.5t-0.5 -3.5v-1q-3 -23 -13.5 -42.5t-27 -34t-37.5 -23t-45 -8.5h-281v-22h281q28 0 53 9.5t44.5 27t32 40.5t15.5 50v1q1 2 1 6v5z" />
    <glyph glyph-name="t" unicode="t" horiz-adv-x="589" 
d="M566 698v-180h-181v-68v-180v-90v-181h-180v519h-180v180h180h180h181v0zM520 596v23h-135h-79h-22h-79h-135v-23h135h79v-518h22v23v248v22v225h79h135v0z" />
    <glyph glyph-name="u" unicode="u" horiz-adv-x="616" 
d="M583 474v-248q0 -47 -17.5 -87.5t-48.5 -71.5t-72 -48.5t-87 -17.5h-66h-44q-47 0 -87.5 17.5t-71.5 48.5t-48.5 71.5t-17.5 87.5v248v225h180v-225v-248q0 -19 13.5 -32t31.5 -13h44h66q19 0 32 13t13 32v248v225h79h22h79v-225zM504 226v167v81v139h-22v-139v-59v-189
q0 -124 -124 -124h-66h-44q-124 0 -124 124v199v49v139h-22v-139v-64v-184q0 -147 146 -147h44h66q146 0 146 147z" />
    <glyph glyph-name="v" unicode="v" horiz-adv-x="612" 
d="M292 69h36l169 564h-24l-161 -541h-5l-167 541h-24l176 -564v0zM608 700l-224 -699h-155l-224 699h193l111 -362l106 362h193v0z" />
    <glyph glyph-name="w" unicode="w" horiz-adv-x="794" 
d="M390 612h13l115 -543h53l120 565h-23l-115 -542h-16l-116 542h-49l-116 -543h-16l-116 544h-22l120 -566h52l116 543v0zM637 -1h-184l-57 265l-56 -265h-184l-149 699h185l56 -265l56 265h185l56 -265l56 265l186 2z" />
    <glyph glyph-name="x" unicode="x" horiz-adv-x="620" 
d="M613 699l-198 -354l193 -345h-206l-90 161l-90 -161h-206l193 345l-198 354h206l95 -169l95 169h206v0zM325 345l160 286h-26l-147 -263l-147 263h-26l160 -286l-155 -277h26l142 254l142 -254h26l-155 277v0z" />
    <glyph glyph-name="y" unicode="y" horiz-adv-x="662" 
d="M423 270v-90v-180h-181v284l-238 414h208l120 -209l121 209h208l-238 -414v-14v0zM344 305l187 326h-26l-161 -281l-12 -19l-172 300h-26l187 -326v-227h23v23v204v0z" />
    <glyph glyph-name="z" unicode="z" horiz-adv-x="599" 
d="M105 101v-22h22h391v22h-391v40l368 407v71h-405v-22h26h259h23h74v-40l-367 -407v-49zM574 180v-180h-30h-68h-180h-90h-180v180l305 338h-35h-90h-180v180h548v-116v-64l-305 -338h305z" />
    <glyph glyph-name="o" unicode="o" horiz-adv-x="633" 
d="M620 475v-248q0 -47 -17.5 -87.5t-48.5 -71.5t-72 -48.5t-87 -17.5h-80h-80q-47 0 -87.5 17.5t-71.5 48.5t-48.5 71.5t-17.5 87.5v248q0 46 17.5 87t48.5 72t71.5 48.5t87.5 17.5h80h80q46 0 87 -17.5t72 -48.5t48.5 -72t17.5 -87zM541 227v248q0 147 -146 147h-80h-80
q-146 0 -146 -147v-248q0 -146 146 -146h80h80q146 0 146 146zM518 475v-248q0 -124 -123 -124h-80h-80q-124 0 -124 124v248q0 124 124 124h80h80q123 0 123 -124zM440 227v248q0 19 -13 32t-32 13h-80h-80q-19 0 -32 -13t-13 -32v-248q0 -19 13 -32t32 -13h80h80
q19 0 32 13t13 32z" />
    <glyph glyph-name="q" unicode="q" horiz-adv-x="629" 
d="M517 474v-248q0 -124 -124 -124h-80h-79q-124 0 -124 124v248q0 124 124 124h79h80q124 0 124 -124zM438 226v248q0 19 -13 32t-32 13h-80h-79q-19 0 -32 -13t-13 -32v-248q0 -19 13 -32t32 -13h79h80q19 0 32 13t13 32zM324 -31v111h69q146 0 146 146v248
q0 146 -146 146h-80h-79q-147 0 -147 -146v-248q0 -146 147 -146h68v-111h11h11zM618 226q0 -45 -16.5 -85t-45.5 -70.5t-68.5 -49t-84.5 -20.5v-84h-180v84q-45 2 -84 20.5t-68.5 49t-46 70.5t-16.5 85v248q0 46 17.5 87t48.5 72t72 48.5t88 17.5h79h80q46 0 87 -17.5
t72 -48.5t48.5 -72t17.5 -87v-248z" />
    <glyph glyph-name="T" unicode="T" horiz-adv-x="589" 
d="M566 698v-180h-181v-68v-180v-90v-181h-180v519h-180v180h180h180h181v0zM520 596v23h-135h-79h-22h-79h-135v-23h135h79v-518h22v23v248v22v225h79h135v0z" />
    <glyph glyph-name="U" unicode="U" horiz-adv-x="616" 
d="M583 474v-248q0 -47 -17.5 -87.5t-48.5 -71.5t-72 -48.5t-87 -17.5h-66h-44q-47 0 -87.5 17.5t-71.5 48.5t-48.5 71.5t-17.5 87.5v248v225h180v-225v-248q0 -19 13.5 -32t31.5 -13h44h66q19 0 32 13t13 32v248v225h79h22h79v-225zM504 226v167v81v139h-22v-139v-59v-189
q0 -124 -124 -124h-66h-44q-124 0 -124 124v199v49v139h-22v-139v-64v-184q0 -147 146 -147h44h66q146 0 146 147z" />
    <glyph glyph-name="S" unicode="S" horiz-adv-x="603" 
d="M580 273q4 -20 4 -46q0 -47 -18 -87.5t-48.5 -71.5t-72 -48.5t-87.5 -17.5h-331l-1 180h333q19 0 32 13t13 32t-13 32t-32 13h-129q-44 0 -83 17t-68 46t-46 68t-17 83q0 45 17 84t46 68t68 45.5t83 16.5h334l2 -180h-58h-25h-253q-14 0 -24 -10t-10 -24t10 -24t24 -10
h129q54 0 100 -23t77 -63q16 -19 26 -41q2 -2 2.5 -5t2.5 -5q0 -1 0.5 -2t0.5 -2l6 -15q2 -6 2 -9q1 -2 1.5 -3.5t0.5 -3.5q1 -2 1 -3.5t1 -3.5zM505 220q1 4 1 12q0 5 -1 7q0 5 -1 8v1q0 4 -1 5q0 2 -0.5 3.5t-0.5 3.5q0 1 -0.5 2t-0.5 2l-1 2q0 3 -1 5t-1.5 3.5t-1.5 3.5
q0 2 -0.5 2.5t-0.5 1.5l-1 1q0 2 -0.5 2.5t-0.5 1.5q-1 1 -1 2t-1 2q-4 8 -7 12l-3 6q-2 2 -3 3.5t-2 3.5q-2 1 -2.5 2t-1.5 2q-6 8 -9 11q-21 21 -45 31q-3 0 -4 1q-27 11 -55 11h-129q-29 0 -53.5 13t-40.5 36v1q-5 8 -10 19q-4 7 -5 13q0 2 -0.5 2.5t-0.5 1.5v1
q-3 12 -3 25q0 24 9 44.5t24 35.5t35.5 24t44.5 9h282v22h-282q-28 0 -53 -10.5t-43.5 -29t-29 -43t-10.5 -52.5q0 -8 1 -12q1 -9 2.5 -17.5t5.5 -16.5q0 -3 2 -5q0 -2 1 -4l2 -4q4 -9 9 -15v-1h1l3 -6q2 -1 4 -5l9 -9q17 -17 36 -26q2 -1 2.5 -1t2.5 -1q24 -12 55 -12h129
h8t8 -1q32 -5 57 -23t39 -46q12 -24 12 -54v-8q0 -2 -0.5 -3.5t-0.5 -3.5v-1q-3 -23 -13.5 -42.5t-27 -34t-37.5 -23t-45 -8.5h-281v-22h281q28 0 53 9.5t44.5 27t32 40.5t15.5 50v1q1 2 1 6v5z" />
    <glyph glyph-name="numbersign" unicode="#" 
 />
    <glyph glyph-name="dollar" unicode="$" 
 />
    <glyph glyph-name="asterisk" unicode="*" 
 />
    <glyph glyph-name="hyphen" unicode="-" 
 />
    <glyph glyph-name="plus" unicode="+" 
 />
    <glyph glyph-name="less" unicode="&#x3c;" 
 />
    <glyph glyph-name="equal" unicode="=" 
 />
    <glyph glyph-name="greater" unicode="&#x3e;" 
 />
    <glyph glyph-name="ampersand" unicode="&#x26;" 
 />
    <glyph glyph-name="percent" unicode="%" 
 />
    <glyph glyph-name="quotedbl" unicode="&#x22;" horiz-adv-x="440" 
d="M129 590v44h-23v-88zM206 701v-157l-90 -136h-90v136v157h180zM334 588v44h-23v-88zM411 699v-157l-90 -136h-90v136v157h180z" />
    <glyph glyph-name="parenleft" unicode="(" horiz-adv-x="242" 
d="M23 -6q-1 4 -1 12v676q0 8 1 12v7l2 17q0 2 0.5 3t0.5 3l2 9l3 12l4 12l5 12q1 4 5 12l7 14l3 4q29 47 76 76.5t105 31.5q4 1 12 1h41v-102v-79h-41q-45 0 -45 -44v-1v-676v-1q0 -44 45 -44h41v-79v-102h-41h-12q-58 3 -105 32.5t-76 76.5l-3 4l-7 14q-4 8 -5 12l-5 12
l-4 12l-3 12l-2 9q0 2 -0.5 3t-0.5 3l-2 17v7zM101 6q0 -30 11.5 -57t31.5 -47t47 -31.5t57 -11.5v23q-26 0 -48.5 9.5t-39.5 26.5t-26.5 39.5t-9.5 48.5v247v351v78q0 26 9.5 48.5t26.5 39.5t39.5 26.5t48.5 9.5v23q-30 0 -57 -11.5t-47 -31.5t-31.5 -47t-11.5 -57v-357
v-319z" />
    <glyph glyph-name="parenright" unicode=")" horiz-adv-x="242" 
d="M204 701q1 -4 1 -12v-676q0 -8 -1 -12v-7l-2 -17q0 -2 -0.5 -3t-0.5 -3l-2 -9l-3 -12l-4 -12l-5 -12q-1 -4 -5 -12l-7 -14l-3 -4q-29 -47 -76 -76.5t-105 -31.5q-4 -1 -12 -1h-41v102v79h41q45 0 45 44v1v676v1q0 44 -45 44h-41v79v102h41h12q58 -3 105 -32.5t76 -76.5
l3 -4l7 -14q4 -8 5 -12l5 -12l4 -12l3 -12l2 -9q0 -2 0.5 -3t0.5 -3l2 -17v-7zM126 689q0 30 -11.5 57t-31.5 47t-47 31.5t-57 11.5v-23q26 0 48.5 -9.5t39.5 -26.5t26.5 -39.5t9.5 -48.5v-247v-351v-78q0 -26 -9.5 -48.5t-26.5 -39.5t-39.5 -26.5t-48.5 -9.5v-23
q30 0 57 11.5t47 31.5t31.5 47t11.5 57v357v319z" />
    <glyph glyph-name="quotesingle" unicode="'" horiz-adv-x="231" 
d="M132 589v44h-23v-88zM209 700v-157l-90 -136h-90v136v157h180z" />
    <glyph glyph-name="R" unicode="R" horiz-adv-x="613" 
d="M491 490q1 -3 1 -8v-8v-10q0 -2 -0.5 -4.5t-0.5 -4.5l-1 -2q0 -2 -0.5 -4t-0.5 -4q-2 -8 -4 -12q-2 -6 -3 -8q-1 -4 -5 -10q-4 -9 -11 -17q-17 -22 -42.5 -35t-55.5 -13h-150h-79v248h229q18 1 40.5 -7t36.5 -19q20 -16 31.5 -37.5t14.5 -44.5zM413 474q0 19 -13 32
t-32 13h-150v-90h150q19 0 32 13t13 32zM514 490q-1 5 -1.5 9t-1.5 8q-3 13 -7 23l-3 6q-2 4 -4 7t-4 7l-3 6q-3 5 -6.5 8.5t-6.5 8.5q-2 0 -2 2l-3 3h-1q-6 6 -10 9l-2 2q-10 8 -27 17q-4 2 -7 3l-6 3q-4 1 -7.5 2t-7.5 2q-20 5 -35 5h-1h-229h-22v-541h22v22v36v190h79h76
l123 -248h25l-123 248h49q31 0 55 10l4 2q32 13 54 41q3 3 4 5l1 1q2 2 4 6q1 2 1.5 2.5t1.5 2.5q3 3 4 5v2q1 0 1 1q1 2 2 4.5t2 4.5q1 1 1 1.5t1 1.5q0 3 2 5v2l1 2q0 1 0.5 1.5t0.5 1.5q5 14 6.5 29t-0.5 30v1zM368 699q6 2 11 0q21 0 44.5 -6t44.5 -17q22 -11 39 -25
l2 -1q3 -3 9 -7q48 -44 67 -106v-1l3 -12v-1q5 -20 5 -37q1 -15 0 -30q-1 -7 -1.5 -13t-2.5 -13v-2q-1 -2 -1 -4.5t-1 -4.5t-1 -4t-1 -4l-3 -9q-2 -6 -4 -9q0 -2 -1 -4l-2 -4q-10 -27 -29 -50q-42 -53 -106 -74l129 -260h-201l-123 248h-27v-68v-180h-180v698h330z" />
    <glyph glyph-name="Q" unicode="Q" horiz-adv-x="629" 
d="M517 474v-248q0 -124 -124 -124h-80h-79q-124 0 -124 124v248q0 124 124 124h79h80q124 0 124 -124zM438 226v248q0 19 -13 32t-32 13h-80h-79q-19 0 -32 -13t-13 -32v-248q0 -19 13 -32t32 -13h79h80q19 0 32 13t13 32zM324 -31v111h69q146 0 146 146v248
q0 146 -146 146h-80h-79q-147 0 -147 -146v-248q0 -146 147 -146h68v-111h11h11zM618 226q0 -45 -16.5 -85t-45.5 -70.5t-68.5 -49t-84.5 -20.5v-84h-180v84q-45 2 -84 20.5t-68.5 49t-46 70.5t-16.5 85v248q0 46 17.5 87t48.5 72t72 48.5t88 17.5h79h80q46 0 87 -17.5
t72 -48.5t48.5 -72t17.5 -87v-248z" />
    <glyph glyph-name="P" unicode="P" horiz-adv-x="622" 
d="M512 476v-1v-9q0 -3 -0.5 -5t-0.5 -4t-1 -3q0 -5 -1 -7t-1 -4t-1 -4t-1 -2.5t-1 -2.5v-1q-2 -4 -3 -7q-3 -7 -7 -13.5t-9 -13.5q-17 -22 -42.5 -34.5t-55.5 -12.5h-175h-79v248h254q18 1 40.5 -7t36.5 -20q40 -32 46 -81q1 -2 1 -8v-5v-3zM433 476q0 18 -13 31.5
t-32 13.5h-175v-90h175q19 0 32 13t13 32zM388 701q12 0 23.5 -1.5t22.5 -3.5q2 0 3.5 -0.5t3.5 -0.5q2 -1 3.5 -1t3.5 -1l9 -3q4 -1 7.5 -2t8.5 -3q1 -1 1.5 -1t1.5 -1q2 -1 5 -2t5 -2q22 -10 41 -26q1 0 1 -0.5t1 -0.5q5 -5 8 -7l1 -1q2 -2 4.5 -4t4.5 -4q6 -7 12 -13
t11 -14q2 -2 2.5 -3.5t2.5 -3.5q0 -1 1 -1q2 -2 2.5 -4.5t2.5 -4.5q5 -8 10 -19q2 -2 2.5 -4.5t2.5 -5.5q4 -7 5 -14q2 -4 4 -12l3 -9l3 -15q0 -3 0.5 -6t0.5 -7q1 -2 1 -8q1 -4 1 -8v-8v-1q0 -7 -1 -11v-9q0 -2 -0.5 -3.5t-0.5 -3.5t-0.5 -4.5t-0.5 -4.5q-5 -27 -15 -51
l-3 -6q-5 -13 -12 -23l-6 -9l-6 -9q-1 -1 -1.5 -2t-1.5 -2q-32 -40 -78 -63.5t-100 -23.5h-175v-67v-181h-180v699h355zM530 440q6 23 5 43q0 3 -1 4v3v4v1q-1 4 -3 14q-2 5 -3.5 11t-3.5 11q-1 2 -1.5 3.5t-1.5 3.5l-3.5 7l-3.5 7q-2 2 -4 6q-3 4 -6.5 8t-6.5 8l-2 2l-3 3
v1q-3 2 -5.5 4.5t-5.5 4.5l-2 2q-10 8 -27 17q-4 2 -7 3q-2 0 -6 2q-10 4 -15 5q-9 2 -18 3.5t-17 0.5h-1h-254h-22v-541h22v23v36v189h79h175q28 0 56 11q1 0 3 2q30 12 53 39q1 1 1.5 2t2.5 2v1q4 4 5 7h1v1q1 1 1 1.5t1 1.5q0 1 2 3q0 1 0.5 1t0.5 1l1 2l1 2l3 6
q2 2 2.5 5t2.5 5q1 2 1.5 5t1.5 5q2 4 2 7v1z" />
  </font>
</defs>
</svg>
