<?xml version="1.0" encoding="UTF-8" standalone="no"?>
<!-- Created with Inkscape (http://www.inkscape.org/) -->

<svg
   xmlns:dc="http://purl.org/dc/elements/1.1/"
   xmlns:cc="http://creativecommons.org/ns#"
   xmlns:rdf="http://www.w3.org/1999/02/22-rdf-syntax-ns#"
   xmlns:svg="http://www.w3.org/2000/svg"
   xmlns="http://www.w3.org/2000/svg"
   xmlns:sodipodi="http://sodipodi.sourceforge.net/DTD/sodipodi-0.dtd"
   xmlns:inkscape="http://www.inkscape.org/namespaces/inkscape"
   width="29.367287mm"
   height="28.530848mm"
   viewBox="0 0 29.367288 28.530847"
   version="1.1"
   id="svg8"
   inkscape:version="0.92.3 (2405546, 2018-03-11)"
   sodipodi:docname="badbee.svg"
   inkscape:export-filename="/var/www/html/GameJam-Pollenisation/assets/images/badbee.png"
   inkscape:export-xdpi="44"
   inkscape:export-ydpi="44">
  <defs
     id="defs2" />
  <sodipodi:namedview
     id="base"
     pagecolor="#ffffff"
     bordercolor="#666666"
     borderopacity="1.0"
     inkscape:pageopacity="0.0"
     inkscape:pageshadow="2"
     inkscape:zoom="0.49497475"
     inkscape:cx="-122.0805"
     inkscape:cy="-6.5543675"
     inkscape:document-units="mm"
     inkscape:current-layer="layer1"
     showgrid="false"
     inkscape:window-width="1600"
     inkscape:window-height="845"
     inkscape:window-x="0"
     inkscape:window-y="0"
     inkscape:window-maximized="1"
     fit-margin-top="0"
     fit-margin-left="0"
     fit-margin-right="0"
     fit-margin-bottom="0" />
  <metadata
     id="metadata5">
    <rdf:RDF>
      <cc:Work
         rdf:about="">
        <dc:format>image/svg+xml</dc:format>
        <dc:type
           rdf:resource="http://purl.org/dc/dcmitype/StillImage" />
        <dc:title></dc:title>
      </cc:Work>
    </rdf:RDF>
  </metadata>
  <g
     inkscape:label="Calque 1"
     inkscape:groupmode="layer"
     id="layer1"
     transform="translate(-71.102805,-1.1641729)">
    <g
       id="g38"
       transform="matrix(0.21931072,0,0,-0.21931072,55.509198,29.950336)"
       inkscape:export-xdpi="44"
       inkscape:export-ydpi="44">
      <g
         style="fill:#aa4400"
         transform="matrix(1.1247835,0,0,1.1247835,-9.0850311,-16.803911)"
         id="g139">
        <g
           style="fill:#aa4400"
           id="g118">
          <path
             inkscape:connector-curvature="0"
             d="m 98.462797,83.632438 c 0,0 5.480653,8.693455 17.008923,-4.724701 0,0 -14.1741,25.135413 8.31548,38.553573 l 7.03036,14.17411 7.03037,-14.17412 c 22.48958,-13.41815 8.31548,-38.553563 8.31548,-38.553563 11.52827,13.418156 17.00893,4.724702 17.00893,4.724702 m -64.709542,10e-7 c -6.047619,-19.087797 8.315472,-20.599702 8.315472,-20.599702 0,0 -24.37946,-0.188988 -31.37202,-12.284226 -6.992559,-12.095238 -4.157738,-22.300596 1.700893,-27.025298 5.858631,-4.724702 36.518587,22.258672 36.518587,22.258672 -5.48065,-12.662202 2.60195,-30.007184 2.60195,-30.007184 0,0 6.52009,19.560267 14.58988,18.520834 8.44778,1.133927 14.58989,-18.520834 14.58989,-18.520834 0,0 8.0826,17.344982 2.60195,30.007185 0,0 30.65996,-26.983375 36.51859,-22.258673 5.85863,4.724702 8.69345,14.93006 1.70089,27.025297 -6.99256,12.09524 -31.37202,12.284226 -31.37202,12.284226 0,0 14.36309,1.511906 8.31547,20.599705"
             style="fill:#aa4400;stroke:none;stroke-width:0.26458332px;stroke-linecap:butt;stroke-linejoin:miter;stroke-opacity:1"
             id="path114" />
        </g>
      </g>
      <path
         sodipodi:nodetypes="ccc"
         inkscape:connector-curvature="0"
         id="path161"
         d="m 126.44429,33.295077 3.38197,-2.592852 6.2318,3.972908 z"
         style="fill:#ffffff;stroke:#000000;stroke-width:0.29759896px;stroke-linecap:butt;stroke-linejoin:miter;stroke-opacity:1" />
      <path
         sodipodi:nodetypes="ccc"
         inkscape:connector-curvature="0"
         id="path161-6"
         d="m 150.59347,33.248125 -3.38198,-2.592852 -6.23179,3.97291 z"
         style="fill:#ffffff;stroke:#000000;stroke-width:0.29759896px;stroke-linecap:butt;stroke-linejoin:miter;stroke-opacity:1" />
      <path
         sodipodi:nodetypes="ccscsccccscccccccccccccccccccccccccccscsccccccccccccccccccccccccsscccccccccccsscccsccccccsscccsscccccccscccccccsssccscsscssccscssccccsscccsccscccccccccscsccsccsccccsscccscccscsccccscccscccccccc"
         inkscape:connector-curvature="0"
         id="path110"
         d="m 137.21161,117.786 c -0.57615,-1.62743 -1.06184,-2.9986 -1.07929,-3.04705 -0.0189,-0.0524 0.92921,-0.0881 2.3438,-0.0881 h 2.37555 l -1.24111,3.04741 c -0.6826,1.67607 -1.26592,3.04724 -1.29625,3.04702 -0.0304,0 -0.52655,-1.3319 -1.1027,-2.95931 z m -1.96836,-6.17839 c -2.25856,-0.4134 -3.9184,-1.6123 -5.47729,-3.95626 -0.42774,-0.64319 -1.17282,-1.90909 -1.17282,-1.99268 0,-0.0301 4.43999,-0.0548 9.86667,-0.0548 3.41615,0.71424 12.76555,-2.23206 7.8516,2.66649 -1.72651,1.697 -3.62524,2.5499 -7.00471,3.14649 -1.24852,0.22041 -3.35992,0.31952 -4.06345,0.19077 z m -8.20727,-8.48291 c -0.91934,-0.14461 -1.66867,-0.38977 -2.06177,-0.67453 -0.61608,-0.44628 -1.77759,-2.588049 -2.56336,-4.726723 l -0.28867,-0.785662 h 16.23192 16.23193 l -0.28093,0.795965 c -0.15453,0.437777 -0.40554,1.07365 -0.55782,1.413043 -0.24608,0.548455 -0.34473,0.659955 -0.88707,1.002477 -2.82642,1.78504 -5.90415,2.51524 -12.17264,2.88801 -2.26733,0.13483 -12.91671,0.20303 -13.65159,0.0874 z m -4.50189,-8.633796 -1.05938,-0.03521 -0.0614,-0.354104 c -0.24472,-1.411806 -0.35368,-2.494489 -0.40705,-4.044339 l -0.0615,-1.785594 h 17.39468 17.39469 v 1.264347 1.264346 l -0.8809,0.589724 c -1.49996,1.004173 -1.75013,1.086676 -4.97223,1.63989 -3.18392,0.546656 -6.79904,0.973882 -11.00288,1.300317 -1.47656,0.114649 -3.57657,0.156964 -8.61846,0.173667 -3.66642,0.01215 -7.14294,0.0067 -7.72561,-0.01305 z m 1.7022,-8.855432 -2.88075,-0.03307 9.5e-4,-0.3081 c 0.002,-0.711583 0.60677,-2.957799 1.25603,-4.665018 0.24701,-0.649551 0.32939,-0.766641 0.68669,-0.97603 0.22331,-0.130858 0.74515,-0.334061 1.15965,-0.451567 l 0.75364,-0.213642 14.10549,-0.02688 14.10549,-0.02688 0.33779,0.784435 0.3378,0.784424 -0.87276,0.948238 c -1.12689,1.224315 -1.77339,1.731446 -2.49299,1.955582 -0.9628,0.299878 -4.40052,1.037523 -6.44413,1.38273 -2.09183,0.353362 -3.7957,0.568983 -5.74426,0.726914 -1.31225,0.106404 -9.48581,0.174319 -14.30855,0.118968 z m 2.95452,-9.067724 -2.87843,-0.05714 0.30717,-0.387465 c 0.16894,-0.213102 3.3284,-3.657301 7.02101,-7.653769 l 6.71382,-7.266312 1.85702,1.910106 c 1.02136,1.050559 3.1855,3.273743 4.8092,4.94041 3.1421,3.225235 3.37934,3.531558 3.45659,4.462991 0.0723,0.872754 -0.4328,1.538851 -1.55196,2.046342 -1.04644,0.474523 -4.71167,1.295874 -7.38044,1.653904 -2.64661,0.35506 -6.55569,0.46611 -12.35398,0.350955 z m -20.74576,-0.945347 c -0.48843,-0.229782 -0.94243,-0.775302 -1.18545,-1.42438 -0.1036,-0.276742 -0.4107,-1.369526 -0.6824,-2.428408 -0.48811,-1.902302 -0.49407,-1.942839 -0.50011,-3.401338 -0.004,-1.086925 0.0396,-1.689503 0.16727,-2.28556 0.78283,-3.655057 3.06342,-6.894623 5.50743,-7.823274 0.32401,-0.12311 1.63539,-0.343695 3.65011,-0.613972 5.08085,-0.681605 20.7768,-2.70486 20.98368,-2.70486 0.15196,0 0.2392,0.146511 0.43627,0.732645 0.1355,0.402955 0.21218,0.756502 0.17042,0.785661 -0.0417,0.02917 -1.01652,0.75738 -2.16615,1.618268 -3.13735,2.349341 -6.42744,4.760737 -12.80383,9.384261 -3.16883,2.29772 -7.02,5.098386 -8.55815,6.223698 l -2.79663,2.046026 -0.91741,0.03678 c -0.75791,0.03037 -0.98479,0.0056 -1.30505,-0.145569 z m 61.76446,0.109554 c -0.13093,-0.02587 -0.53805,-0.266033 -0.90469,-0.533653 -0.36665,-0.26762 -3.49501,-2.54164 -6.95192,-5.053383 -10.7639,-7.820895 -18.24076,-13.304352 -18.63962,-13.670108 -0.0382,-0.03503 0.0277,-0.383838 0.1465,-0.775135 0.16484,-0.543058 0.26016,-0.717819 0.40277,-0.738355 0.1028,-0.0148 4.00083,0.466132 8.66241,1.06873 17.16008,2.21827 16.00698,2.02437 17.24964,2.900595 2.02991,1.431329 3.61766,4.115682 4.28802,7.249581 0.12415,0.58039 0.17095,1.195176 0.16656,2.188048 -0.006,1.354919 -0.0162,1.420932 -0.5456,3.514019 -0.61359,2.426102 -0.91634,3.11195 -1.58063,3.580737 -0.36844,0.260005 -0.47906,0.287067 -1.2301,0.300857 -0.45388,0.0079 -0.93239,-0.0056 -1.06334,-0.03194 z m -38.8069,-23.273083 c -20.97103,-2.170157 -33.898896,-4.116043 -38.903902,-5.855765 -1.293883,-0.449746 -3.163341,-1.403269 -4.556914,-2.324269 -4.157785,-2.747834 -6.8446,-6.392785 -8.201505,-11.12623 -0.526197,-1.835565 -0.774909,-3.463439 -0.948823,-6.210121 -0.0514,-0.811849 -0.143264,-2.204613 -0.204126,-3.095028 -0.301284,-4.408128 0.263144,-6.752391 1.835523,-7.623395 0.482443,-0.267251 0.562235,-0.280822 1.649743,-0.280567 1.072875,2.85e-4 1.205835,0.02208 2.1737,0.356878 1.992498,0.689236 3.614425,1.631773 7.808225,4.537518 5.576261,3.863614 10.568259,7.224396 27.348889,18.412187 9.58507,6.390449 17.45633,11.645865 17.49168,11.678702 0.10438,0.09695 -0.72229,1.961353 -0.87708,1.97814 -0.0767,0.0083 -2.15367,-0.193301 -4.61541,-0.44805 z m 13.0883,0.280085 c -0.11723,-0.219038 -0.7558,-1.703466 -0.7558,-1.756929 0,-0.02046 6.80312,-4.565151 15.11803,-10.099318 17.85186,-11.881682 22.78178,-15.202933 31.21218,-21.027407 2.76954,-1.913444 4.83009,-3.052357 6.57098,-3.631947 0.88475,-0.294554 2.4177,-0.416731 3.05643,-0.243601 1.4422,0.390912 2.22893,1.809659 2.44391,4.407267 0.0954,1.152007 0.0782,1.735992 -0.14958,5.094893 -0.28378,4.184608 -0.40977,5.200747 -0.87186,7.031625 -1.492,5.911648 -5.13949,10.344675 -10.8807,13.223997 -1.24899,0.626394 -2.46351,1.059473 -4.26414,1.520525 -6.11056,1.564615 -19.49637,3.460941 -36.3785,5.153635 -2.35698,0.236323 -4.44675,0.448041 -4.64394,0.470483 -0.28284,0.03219 -0.37931,0.0019 -0.45701,-0.143223 z m -4.9936,-5.094637 c -0.94437,-0.23424 -1.29511,-0.528649 -3.49236,-2.931447 -1.10649,-1.210004 -4.041,-4.225779 -6.52114,-6.701723 -2.48013,-2.475943 -4.50933,-4.54473 -4.50933,-4.597305 0,-0.05257 0.15541,-0.405213 0.34538,-0.783642 1.40134,-2.79166 3.60443,-4.486159 7.02287,-5.401588 l 0.94011,-0.251755 -1.56145,-1.850397 c -3.22697,-3.824123 -3.58183,-4.250823 -4.19198,-5.040656 -0.70175,-0.908399 -1.81334,-2.576253 -2.17385,-3.261685 -0.13084,-0.248793 -0.27291,-0.452349 -0.3157,-0.452349 -0.13628,0 -0.70779,1.35063 -1.04924,2.479639 -0.39677,1.311864 -0.7317,2.778499 -1.08189,4.737451 l -0.26021,1.455575 -0.21358,-0.408026 c -0.16019,-0.306037 -0.21465,-0.574801 -0.21788,-1.075232 -0.006,-0.827979 0.22064,-2.801599 0.47971,-4.189611 0.2001,-1.072074 1.86578,-7.803628 1.98677,-8.02916 0.0391,-0.07306 0.27595,0.460761 0.57021,1.285627 0.96985,2.718693 2.10833,4.751584 3.92968,7.016912 0.42657,0.530548 1.94921,2.346885 3.38365,4.036304 2.20879,2.601425 2.64004,3.064563 2.8169,3.025253 0.47677,-0.105977 3.2541,-0.240176 4.9704,-0.240176 1.70538,0 4.49157,0.133966 4.96457,0.238707 0.16929,0.03749 0.66717,-0.502286 2.9998,-3.252203 5.15885,-6.081737 5.72535,-6.953423 7.23229,-11.128407 l 0.41248,-1.14278 0.12548,0.428542 c 0.32473,1.108913 1.57902,6.148674 1.79168,7.198969 0.30968,1.529414 0.49458,2.878429 0.57311,4.181217 0.0593,0.982744 0.0486,1.079949 -0.17273,1.571322 l -0.23589,0.523774 -0.0584,-0.333311 c -0.71536,-4.084577 -1.27276,-6.269462 -1.98614,-7.785189 -0.15407,-0.327359 -0.31307,-0.595197 -0.35333,-0.595197 -0.0403,0 -0.19478,0.224983 -0.34337,0.499965 -0.87722,1.623437 -2.0158,3.148008 -4.88612,6.542474 -1.17585,1.390588 -2.32483,2.749449 -2.5533,3.01969 -0.22846,0.27024 -0.41538,0.513101 -0.41538,0.539691 0,0.02659 0.22499,0.09582 0.49996,0.153849 2.66807,0.563031 5.02966,1.991066 6.44016,3.894311 0.46355,0.625469 1.17411,1.872492 1.28976,2.263484 0.0496,0.167578 -0.70101,0.961133 -4.59375,4.856814 -2.55915,2.561081 -5.52251,5.610047 -6.58524,6.775483 -1.73141,1.898751 -1.9965,2.150615 -2.5507,2.423447 -0.53041,0.261115 -0.73546,0.307757 -1.44003,0.327527 -0.45185,0.01268 -0.90725,0.0018 -1.012,-0.02418 z M 135.1562,34.336936 c -0.0218,-0.01849 -1.27033,-0.749931 -2.77447,-1.625419 -1.8401,-1.071038 -2.77751,-1.566311 -2.86539,-1.513894 -0.29177,0.174039 -2.73847,1.962597 -2.78271,2.03419 -0.0262,0.04244 0.19282,0.107215 0.48677,0.143946 0.29395,0.03672 2.06227,0.270908 3.92959,0.520404 3.14613,0.420358 4.10685,0.526061 4.00621,0.440773 z m 10.75781,-0.496566 c 2.23059,-0.291604 4.06929,-0.543867 4.08599,-0.560586 0.0168,-0.01673 -0.58255,-0.471297 -1.33171,-1.010177 -0.74917,-0.538878 -1.41537,-1.020124 -1.48046,-1.069436 -0.0823,-0.06234 -0.88045,0.354142 -2.61888,1.366492 -3.28168,1.911044 -3.10866,1.80311 -2.89122,1.803538 0.0994,1.91e-4 2.00571,-0.238228 4.23628,-0.529831 z"
         style="fill:#000000;stroke-width:0.09523167" />
    </g>
  </g>
</svg>
