<?xml version="1.0" encoding="UTF-8" standalone="no"?>
<!-- Created with Inkscape (http://www.inkscape.org/) -->

<svg
   xmlns:dc="http://purl.org/dc/elements/1.1/"
   xmlns:cc="http://creativecommons.org/ns#"
   xmlns:rdf="http://www.w3.org/1999/02/22-rdf-syntax-ns#"
   xmlns:svg="http://www.w3.org/2000/svg"
   xmlns="http://www.w3.org/2000/svg"
   xmlns:sodipodi="http://sodipodi.sourceforge.net/DTD/sodipodi-0.dtd"
   xmlns:inkscape="http://www.inkscape.org/namespaces/inkscape"
   width="119.05154mm"
   height="115.66072mm"
   viewBox="0 0 119.05154 115.66072"
   version="1.1"
   id="svg8"
   inkscape:version="0.92.3 (2405546, 2018-03-11)"
   sodipodi:docname="bee.svg">
  <defs
     id="defs2" />
  <sodipodi:namedview
     id="base"
     pagecolor="#ffffff"
     bordercolor="#666666"
     borderopacity="1.0"
     inkscape:pageopacity="0.0"
     inkscape:pageshadow="2"
     inkscape:zoom="0.7"
     inkscape:cx="-24.138"
     inkscape:cy="148.08898"
     inkscape:document-units="mm"
     inkscape:current-layer="layer1"
     showgrid="false"
     inkscape:window-width="1600"
     inkscape:window-height="845"
     inkscape:window-x="0"
     inkscape:window-y="0"
     inkscape:window-maximized="1"
     fit-margin-top="0"
     fit-margin-left="0"
     fit-margin-right="0"
     fit-margin-bottom="0" />
  <metadata
     id="metadata5">
    <rdf:RDF>
      <cc:Work
         rdf:about="">
        <dc:format>image/svg+xml</dc:format>
        <dc:type
           rdf:resource="http://purl.org/dc/dcmitype/StillImage" />
        <dc:title></dc:title>
      </cc:Work>
    </rdf:RDF>
  </metadata>
  <g
     inkscape:label="Calque 1"
     inkscape:groupmode="layer"
     id="layer1"
     transform="translate(-71.102807,-15.596726)">
    <g
       id="g139"
       transform="translate(-0.1889881,-0.37797619)"
       style="fill:#ffff00">
      <g
         id="g118"
         style="fill:#ffff00">
        <path
           id="path114"
           style="fill:#ffff00;stroke:none;stroke-width:0.26458332px;stroke-linecap:butt;stroke-linejoin:miter;stroke-opacity:1"
           d="m 98.462797,83.632438 c 0,0 5.480653,8.693455 17.008923,-4.724701 0,0 -14.1741,25.135413 8.31548,38.553573 l 7.03036,14.17411 7.03037,-14.17412 c 22.48958,-13.41815 8.31548,-38.553563 8.31548,-38.553563 11.52827,13.418156 17.00893,4.724702 17.00893,4.724702 m -64.709542,10e-7 c -6.047619,-19.087797 8.315472,-20.599702 8.315472,-20.599702 0,0 -24.37946,-0.188988 -31.37202,-12.284226 -6.992559,-12.095238 -4.157738,-22.300596 1.700893,-27.025298 5.858631,-4.724702 36.518587,22.258672 36.518587,22.258672 -5.48065,-12.662202 2.60195,-30.007184 2.60195,-30.007184 0,0 6.52009,19.560267 14.58988,18.520834 8.44778,1.133927 14.58989,-18.520834 14.58989,-18.520834 0,0 8.0826,17.344982 2.60195,30.007185 0,0 30.65996,-26.983375 36.51859,-22.258673 5.85863,4.724702 8.69345,14.93006 1.70089,27.025297 -6.99256,12.09524 -31.37202,12.284226 -31.37202,12.284226 0,0 14.36309,1.511906 8.31547,20.599705"
           inkscape:connector-curvature="0" />
      </g>
    </g>
    <path
       style="fill:#ffffff;stroke:#000000;stroke-width:0.26458332px;stroke-linecap:butt;stroke-linejoin:miter;stroke-opacity:1"
       d="m 120.3047,44.163027 3.00678,-2.305201 5.54044,3.532154 z"
       id="path161"
       inkscape:connector-curvature="0"
       sodipodi:nodetypes="ccc" />
    <path
       style="fill:#ffffff;stroke:#000000;stroke-width:0.26458332px;stroke-linecap:butt;stroke-linejoin:miter;stroke-opacity:1"
       d="m 141.77477,44.121284 -3.00678,-2.305201 -5.54044,3.532155 z"
       id="path161-6"
       inkscape:connector-curvature="0"
       sodipodi:nodetypes="ccc" />
    <path
       style="fill:#000000;stroke-width:0.08466666"
       d="m 129.8775,119.28052 c -0.51224,-1.44688 -0.94404,-2.66593 -0.95956,-2.70901 -0.0168,-0.0466 0.82613,-0.0783 2.08378,-0.0783 h 2.11201 l -1.10342,2.70933 c -0.60688,1.49013 -1.12548,2.70918 -1.15245,2.70899 -0.027,0 -0.46813,-1.18414 -0.98036,-2.63101 z m -1.74999,-5.49296 c -2.008,-0.36753 -3.4837,-1.43343 -4.86964,-3.51735 -0.38029,-0.57183 -1.04271,-1.69729 -1.04271,-1.77161 0,-0.0268 3.94742,-0.0487 8.77206,-0.0487 3.03716,0.635 11.34934,-1.98444 6.98054,2.37067 -1.53497,1.50873 -3.22305,2.26701 -6.2276,2.79741 -1.11001,0.19596 -2.98717,0.28408 -3.61265,0.16961 z m -7.29676,-7.54181 c -0.81735,-0.12857 -1.48355,-0.34653 -1.83304,-0.5997 -0.54773,-0.39677 -1.58038,-2.30093 -2.27898,-4.20234 l -0.25664,-0.6985 h 14.43115 14.43116 l -0.24977,0.70766 c -0.13738,0.38921 -0.36055,0.95454 -0.49593,1.25628 -0.21878,0.48761 -0.30649,0.58674 -0.78866,0.89126 -2.51286,1.58701 -5.24914,2.2362 -10.82221,2.56762 -2.01579,0.11987 -11.48373,0.1805 -12.13708,0.0777 z m -4.00245,-7.675964 -0.94185,-0.0313 -0.0546,-0.31482 c -0.21757,-1.25518 -0.31444,-2.21775 -0.36189,-3.59566 l -0.0547,-1.5875 h 15.46491 15.46492 v 1.12408 1.12408 l -0.78317,0.5243 c -1.33356,0.89277 -1.55597,0.96612 -4.42061,1.45796 -2.8307,0.48601 -6.04476,0.86584 -9.78222,1.15606 -1.31275,0.10193 -3.17979,0.13955 -7.66233,0.1544 -3.25967,0.0108 -6.3505,0.006 -6.86853,-0.0116 z m 1.51336,-7.87301 -2.56116,-0.0294 8.4e-4,-0.27392 c 0.002,-0.63264 0.53946,-2.62966 1.11669,-4.14748 0.21961,-0.57749 0.29285,-0.68159 0.61051,-0.86775 0.19853,-0.11634 0.66248,-0.297 1.031,-0.40147 l 0.67003,-0.18994 12.54062,-0.0239 12.54063,-0.0239 0.30032,0.69741 0.30032,0.6974 -0.77594,0.84304 c -1.00187,1.08849 -1.57665,1.53936 -2.21641,1.73863 -0.85599,0.26661 -3.91233,0.92242 -5.72922,1.22933 -1.85976,0.31416 -3.37461,0.50586 -5.10699,0.64627 -1.16667,0.0946 -8.43346,0.15498 -12.72116,0.10577 z m 2.62674,-8.06175 -2.55909,-0.0508 0.27309,-0.34448 c 0.1502,-0.18946 2.95915,-3.25156 6.2421,-6.804659 l 5.96899,-6.460187 1.651,1.698198 c 0.90805,0.93401 2.8321,2.910554 4.27567,4.392321 2.79351,2.867427 3.00443,3.139767 3.07311,3.967867 0.0643,0.77593 -0.38478,1.36813 -1.37978,1.81932 -0.93035,0.42188 -4.18896,1.15211 -6.56166,1.47042 -2.35299,0.31567 -5.8284,0.4144 -10.98343,0.31202 z m -18.44422,-0.84047 c -0.43424,-0.20429 -0.83788,-0.68929 -1.05394,-1.26636 -0.0921,-0.24604 -0.36513,-1.21759 -0.60669,-2.159 -0.43396,-1.69126 -0.43926,-1.7273 -0.44463,-3.023993 -0.004,-0.966342 0.0352,-1.50207 0.14871,-2.032 0.69599,-3.249565 2.72357,-6.129733 4.89644,-6.95536 0.28806,-0.109452 1.45396,-0.305565 3.24517,-0.545858 4.51718,-0.605987 18.47182,-2.404782 18.65575,-2.404782 0.1351,0 0.21266,0.130257 0.38787,0.651365 0.12046,0.358251 0.18864,0.672576 0.15151,0.6985 -0.0371,0.02593 -0.90375,0.673356 -1.92584,1.438737 -2.78929,2.088705 -5.71438,4.232581 -11.38337,8.343171 -2.81728,2.04281 -6.2412,4.53277 -7.60871,5.53324 l -2.48637,1.81904 -0.81563,0.0327 c -0.67383,0.027 -0.87554,0.005 -1.16027,-0.12942 z m 54.91231,0.0974 c -0.11641,-0.023 -0.47836,-0.23652 -0.80433,-0.47445 -0.32597,-0.23793 -3.10727,-2.25967 -6.18067,-4.49276 -9.56975,-6.953245 -16.21713,-11.828367 -16.57174,-12.153546 -0.034,-0.03114 0.0246,-0.341255 0.13025,-0.689141 0.14655,-0.482811 0.2313,-0.638184 0.35808,-0.656442 0.0914,-0.01316 3.55698,0.414419 7.70141,0.950165 15.25634,1.972175 14.23116,1.799786 15.33596,2.578803 1.80471,1.272537 3.21632,3.659088 3.81231,6.445312 0.11037,0.516001 0.15198,1.062583 0.14808,1.945306 -0.005,1.204604 -0.0144,1.263293 -0.48507,3.124173 -0.54552,2.15695 -0.81468,2.76671 -1.40528,3.18349 -0.32756,0.23116 -0.42591,0.25522 -1.09363,0.26748 -0.40353,0.007 -0.82895,-0.005 -0.94537,-0.0284 z M 122.93483,61.20079 c -18.64451,-1.9294 -30.138154,-3.659409 -34.587904,-5.206126 -1.15034,-0.399852 -2.8124,-1.247591 -4.05137,-2.066415 -3.69652,-2.442989 -6.08526,-5.683569 -7.29163,-9.891885 -0.46782,-1.631928 -0.68894,-3.079205 -0.84356,-5.52117 -0.0457,-0.721783 -0.12737,-1.960033 -0.18148,-2.751666 -0.26786,-3.91909 0.23395,-6.00328 1.63189,-6.777655 0.42892,-0.237602 0.49986,-0.249667 1.46672,-0.249441 0.95385,2.54e-4 1.07206,0.01963 1.93255,0.317286 1.77145,0.612772 3.21344,1.450744 6.94198,4.034126 4.95763,3.434984 9.39582,6.422921 24.314804,16.369538 8.5217,5.681492 15.51972,10.353872 15.55115,10.383066 0.0928,0.08619 -0.64216,1.74376 -0.77978,1.758685 -0.0682,0.0074 -1.91474,-0.171856 -4.10337,-0.398343 z m 11.63628,0.249012 c -0.10422,-0.194738 -0.67195,-1.514483 -0.67195,-1.562015 0,-0.01819 6.04838,-4.058693 13.44083,-8.978899 15.87138,-10.563528 20.25437,-13.516319 27.7495,-18.694626 2.46229,-1.701166 4.29424,-2.713728 5.842,-3.229018 0.78659,-0.261876 2.14948,-0.370499 2.71735,-0.216576 1.2822,0.347544 1.98165,1.608895 2.17278,3.918324 0.0848,1.024204 0.0695,1.543401 -0.13299,4.529666 -0.25229,3.720367 -0.36431,4.623776 -0.77513,6.251536 -1.32648,5.255809 -4.56932,9.197036 -9.6736,11.756926 -1.11042,0.556902 -2.1902,0.941935 -3.79107,1.351838 -5.43266,1.391036 -17.33344,3.076984 -32.34267,4.58189 -2.0955,0.210106 -3.95343,0.398336 -4.12874,0.418288 -0.25146,0.02862 -0.33723,0.0017 -0.40631,-0.127334 z m -4.43961,-4.529438 c -0.8396,-0.208253 -1.15143,-0.47 -3.10492,-2.606232 -0.98373,-1.075766 -3.59269,-3.756971 -5.79768,-5.958233 -2.20499,-2.201262 -4.00907,-4.040538 -4.00907,-4.08728 0,-0.04674 0.13817,-0.360259 0.30707,-0.696705 1.24587,-2.481953 3.20455,-3.988464 6.24375,-4.802335 l 0.83581,-0.223826 -1.38822,-1.645113 c -2.86897,-3.399875 -3.18446,-3.779237 -3.72692,-4.481446 -0.6239,-0.807621 -1.61217,-2.290443 -1.93268,-2.899833 -0.11633,-0.221192 -0.24264,-0.402166 -0.28068,-0.402166 -0.12116,0 -0.62927,1.200791 -0.93284,2.204548 -0.35275,1.166326 -0.65052,2.470252 -0.96186,4.211878 l -0.23134,1.294093 -0.18989,-0.362759 c -0.14242,-0.272085 -0.19084,-0.511033 -0.19371,-0.955946 -0.005,-0.736123 0.19616,-2.490789 0.42649,-3.724815 0.1779,-0.953138 1.65879,-6.937893 1.76636,-7.138405 0.0348,-0.06495 0.24534,0.409644 0.50695,1.143 0.86226,2.417081 1.87443,4.224443 3.49372,6.238455 0.37925,0.471689 1.73297,2.086522 3.00827,3.588516 1.96375,2.312823 2.34715,2.724581 2.50439,2.689632 0.42388,-0.09422 2.89309,-0.213531 4.41899,-0.213531 1.51618,0 3.99327,0.119104 4.4138,0.212225 0.15051,0.03333 0.59315,-0.446563 2.667,-2.891404 4.58653,-5.407029 5.09018,-6.18201 6.42994,-9.893821 l 0.36672,-1.016 0.11156,0.381 c 0.2887,0.98589 1.40384,5.46654 1.59291,6.400315 0.27532,1.359741 0.43971,2.559096 0.50953,3.717352 0.0527,0.873719 0.0432,0.96014 -0.15357,1.397 l -0.20972,0.465666 -0.0519,-0.296333 c -0.636,-3.631434 -1.13156,-5.573928 -1.7658,-6.9215 -0.13698,-0.291042 -0.27834,-0.529166 -0.31413,-0.529166 -0.0358,0 -0.17317,0.200024 -0.30528,0.444499 -0.7799,1.443333 -1.79217,2.798768 -4.34405,5.816652 -1.0454,1.236316 -2.06692,2.444425 -2.27004,2.684685 -0.20311,0.24026 -0.3693,0.456178 -0.3693,0.479818 0,0.02364 0.20003,0.08519 0.4445,0.136781 2.37207,0.500568 4.47167,1.770177 5.72569,3.462276 0.41212,0.556079 1.04385,1.664757 1.14667,2.012373 0.0441,0.148987 -0.62324,0.854505 -4.08412,4.317999 -2.27524,2.276954 -4.90984,4.987668 -5.85467,6.02381 -1.53933,1.688104 -1.77501,1.912026 -2.26773,2.15459 -0.47156,0.232147 -0.65387,0.273614 -1.28027,0.291191 -0.40172,0.01127 -0.8066,0.0016 -0.89973,-0.0215 z m -2.08139,-11.831062 c -0.0194,-0.01644 -1.1294,-0.666733 -2.46667,-1.445095 -1.63596,-0.952217 -2.46937,-1.392544 -2.5475,-1.345942 -0.2594,0.154731 -2.43466,1.744866 -2.474,1.808517 -0.0233,0.03773 0.17143,0.09532 0.43277,0.127976 0.26134,0.03265 1.83348,0.240854 3.49364,0.462671 2.7971,0.373723 3.65124,0.467699 3.56176,0.391873 z m 9.56434,-0.441477 c 1.98313,-0.259253 3.61784,-0.48353 3.63269,-0.498394 0.0149,-0.01487 -0.51792,-0.419012 -1.18397,-0.898108 -0.66606,-0.479095 -1.25835,-0.906952 -1.31622,-0.950793 -0.0732,-0.05542 -0.78277,0.314854 -2.32834,1.214893 -2.91761,1.699033 -2.76378,1.603073 -2.57047,1.603454 0.0884,1.7e-4 1.7832,-0.211799 3.76631,-0.471052 z"
       id="path110"
       inkscape:connector-curvature="0"
       sodipodi:nodetypes="ccscsccccscccccccccccccccccccccccccccscsccccccccccccccccccccccccsscccccccccccsscccsccccccsscccsscccccccscccccccsssccscsscssccscssccccsscccsccscccccccccscsccsccsccccsscccscccscsccccscccscccccccc" />
  </g>
</svg>
