<?xml version="1.0" encoding="UTF-8" standalone="no"?>
<!-- Created with Inkscape (http://www.inkscape.org/) -->

<svg
   xmlns:dc="http://purl.org/dc/elements/1.1/"
   xmlns:cc="http://creativecommons.org/ns#"
   xmlns:rdf="http://www.w3.org/1999/02/22-rdf-syntax-ns#"
   xmlns:svg="http://www.w3.org/2000/svg"
   xmlns="http://www.w3.org/2000/svg"
   xmlns:sodipodi="http://sodipodi.sourceforge.net/DTD/sodipodi-0.dtd"
   xmlns:inkscape="http://www.inkscape.org/namespaces/inkscape"
   width="20.724407mm"
   height="27.92448mm"
   viewBox="0 0 20.724408 27.92448"
   version="1.1"
   id="svg8"
   inkscape:version="0.92.3 (2405546, 2018-03-11)"
   sodipodi:docname="chemical.svg"
   inkscape:export-filename="/var/www/html/GameJam-Pollenisation/assets/images/badbee.png"
   inkscape:export-xdpi="44"
   inkscape:export-ydpi="44">
  <defs
     id="defs2" />
  <sodipodi:namedview
     id="base"
     pagecolor="#ffffff"
     bordercolor="#666666"
     borderopacity="1.0"
     inkscape:pageopacity="0.0"
     inkscape:pageshadow="2"
     inkscape:zoom="1.4"
     inkscape:cx="-10.607892"
     inkscape:cy="91.583247"
     inkscape:document-units="mm"
     inkscape:current-layer="layer1"
     showgrid="false"
     inkscape:window-width="1600"
     inkscape:window-height="845"
     inkscape:window-x="0"
     inkscape:window-y="0"
     inkscape:window-maximized="1"
     fit-margin-top="0"
     fit-margin-left="0"
     fit-margin-right="0"
     fit-margin-bottom="0" />
  <metadata
     id="metadata5">
    <rdf:RDF>
      <cc:Work
         rdf:about="">
        <dc:format>image/svg+xml</dc:format>
        <dc:type
           rdf:resource="http://purl.org/dc/dcmitype/StillImage" />
        <dc:title></dc:title>
      </cc:Work>
    </rdf:RDF>
  </metadata>
  <g
     inkscape:label="Calque 1"
     inkscape:groupmode="layer"
     id="layer1"
     transform="translate(-74.519983,-3.6761715)">
    <g
       id="g1048"
       transform="matrix(0.5477426,0,0,0.5477426,35.565517,15.430314)">
      <path
         sodipodi:nodetypes="ccccccccc"
         inkscape:connector-curvature="0"
         id="path1006"
         d="m 80.732832,2.9596431 h 5.77462 l 0.407279,7.6411609 8.421949,15.982163 -0.897693,1.984375 -21.076668,0.426497 -1.790891,-2.032896 8.754404,-16.360139 0.407,-7.6411609"
         style="fill:#ffffff;stroke:#000000;stroke-width:0.26458332px;stroke-linecap:butt;stroke-linejoin:miter;stroke-opacity:1" />
      <path
         sodipodi:nodetypes="ccccccccccc"
         inkscape:connector-curvature="0"
         d="m 78.96686,-7.3910003 c -3.455631,-3.9924847 -1.478223,-7.8275687 3.590773,-8.5517117 2.846682,-3.889438 10.471256,-3.857385 11.362909,1.299294 -0.71575,-7.061229 5.040392,-7.267566 9.047808,-6.212984 4.80739,0.820478 9.96695,9.910903 0.75595,11.4337798 3.05273,4.3551969 1.03938,15.6227728 -7.370536,10.08723934 C 93.664672,2.7606014 89.543815,2.1500504 86.57363,-0.8236641 m 0,-5e-8 c 0,0 -2.80616,5.70919125 -3.089642,5.89817925 -2.315109,-8.0319943 -2.91073,-6.9376138 -2.91073,-6.9376138 -3.802603,0.7659369 -6.950956,-7.1980761 -1.606398,-5.5279018"
         style="fill:#00ff00;stroke:#000000;stroke-width:0.26499999;stroke-linecap:butt;stroke-linejoin:miter;stroke-miterlimit:4;stroke-dasharray:none;stroke-opacity:1"
         id="path1024" />
      <path
         inkscape:connector-curvature="0"
         id="path1002"
         d="m 73.645801,29.395439 c -0.982938,-0.187424 -1.494849,-0.417083 -1.954716,-0.87695 -0.659684,-0.659687 -0.752317,-1.684139 -0.264038,-2.920147 0.115551,-0.292506 2.165051,-3.786614 4.554438,-7.764684 l 4.344347,-7.232854 -0.07086,-2.3331794 c -0.09798,-3.2261227 -0.46711,-5.3079815 -0.941147,-5.3079815 -0.09726,0 -0.234916,-0.1085133 -0.305894,-0.2411408 -0.100388,-0.18758 -0.08775,-0.3041824 0.05692,-0.5249656 l 0.185958,-0.2838245 h 4.353941 c 4.208726,0 4.360996,0.0078 4.565519,0.233792 0.174823,0.1931762 0.188531,0.2843756 0.07891,0.5249652 -0.07297,0.1601455 -0.215215,0.2911737 -0.316109,0.2911737 -0.480457,0 -0.847573,2.0769545 -0.948529,5.3663111 l -0.06981,2.2748498 4.170869,6.941207 c 2.293976,3.817663 4.293087,7.263743 4.442474,7.657953 0.592423,1.563326 0.483358,2.572828 -0.366233,3.389814 -0.97897,0.941399 -0.499276,0.901851 -11.250045,0.927533 -7.158487,0.0171 -9.695066,-0.01301 -10.265991,-0.121872 z m 19.351787,-1.010083 c 0.409576,-0.06646 0.894676,-0.198395 1.077995,-0.293194 0.785227,-0.406054 0.937854,-1.322755 0.427803,-2.569399 -0.155172,-0.379263 -2.162645,-3.813112 -4.461055,-7.630775 l -4.178924,-6.941207 0.07319,-2.6248268 c 0.06435,-2.3079109 0.195793,-3.6514343 0.487935,-4.9871699 l 0.08292,-0.3791412 h -2.88731 -2.88731 l 0.08119,0.3791412 c 0.315321,1.4724838 0.435254,2.6826457 0.494257,4.9871699 l 0.06721,2.6248268 -4.416644,7.349513 c -2.429154,4.042232 -4.512335,7.631475 -4.629292,7.976095 -0.243668,0.717982 -0.189016,1.16208 0.18488,1.50238 0.395118,0.359616 0.723212,0.495724 1.452407,0.60252 1.000945,0.146597 18.129787,0.150258 19.030753,0.0041 z M 75.535486,27.449345 c -1.762754,-0.170261 -2.131236,-0.695966 -1.43866,-2.052519 0.191023,-0.37416 1.706657,-2.937641 3.368077,-5.696625 2.387628,-3.964937 3.075465,-5.024317 3.281748,-5.05442 0.14354,-0.02095 0.540466,0.04982 0.882061,0.157268 l 0.621082,0.195355 -0.01477,0.605539 c -0.01808,0.739809 0.240475,1.186071 0.829764,1.432291 0.518922,0.21682 1.075551,0.126257 1.519377,-0.247196 l 0.329258,-0.277054 0.694941,0.235694 c 0.535377,0.181574 0.898744,0.224117 1.582543,0.185283 l 0.887598,-0.05041 1.241425,2.069396 c 0.682785,1.138167 1.241429,2.09791 1.241429,2.132761 0,0.03485 -0.131243,0.25676 -0.291648,0.493133 -0.581872,0.857434 -0.272534,2.199805 0.63718,2.765059 0.313849,0.195012 0.584272,0.254531 1.128577,0.248399 l 0.715827,-0.0081 0.412271,0.766603 c 0.544439,1.012365 0.639319,1.522362 0.334536,1.798188 -0.246436,0.223022 -1.325469,0.420469 -2.318826,0.424307 -0.601872,0.0024 -0.608896,-0.0018 -0.831417,-0.493454 -0.600514,-1.326712 -2.051766,-1.991297 -3.447723,-1.578848 -0.608282,0.179721 -1.644478,1.183148 -1.758667,1.703044 l -0.08162,0.371599 -4.27795,-0.01589 c -2.352871,-0.0087 -4.713754,-0.05799 -5.246407,-0.109439 z m 4.714632,-0.746979 c 1.75835,-0.522174 2.560618,-2.565576 1.61059,-4.102215 -1.178761,-1.906605 -3.852011,-1.805378 -4.860963,0.184067 -0.551312,1.087078 -0.416643,2.174731 0.381869,3.084186 0.770398,0.877436 1.756612,1.164158 2.868504,0.833962 z m 4.294964,-2.227481 c 0.258717,-0.25872 0.227522,-0.705759 -0.06348,-0.909581 -0.327785,-0.229589 -0.711969,-0.08183 -0.859116,0.330431 -0.09719,0.272311 -0.07343,0.353357 0.158748,0.541364 0.332331,0.269107 0.523084,0.278543 0.763842,0.03779 z m 2.645071,-2.066629 c 0.498319,-0.335336 0.721977,-0.942142 0.561489,-1.523379 -0.324267,-1.174389 -1.927291,-1.386312 -2.573789,-0.34026 -0.359231,0.581251 -0.244275,1.252456 0.29992,1.751176 0.514787,0.471764 1.119437,0.511477 1.71238,0.112463 z m -5.911524,-2.133093 c 0.236093,-0.23609 0.232724,-0.502001 -0.0097,-0.76993 -0.220551,-0.243707 -0.62737,-0.279506 -0.833529,-0.07335 -0.180463,0.180462 -0.180463,0.706146 0,0.886608 0.196309,0.196308 0.625703,0.174244 0.843278,-0.04333 z m 4.192698,-1.463378 c 0.38029,-0.54294 -0.364007,-1.193298 -0.856051,-0.748006 -0.283615,0.256667 -0.303707,0.561298 -0.05353,0.811476 0.25872,0.25872 0.705761,0.227525 0.909583,-0.06347 z"
         style="fill:#000000;stroke-width:0.11665893" />
      <path
         inkscape:connector-curvature="0"
         id="path1004"
         d="m 77.405293,27.4948 c -0.907907,-0.02011 -1.832767,-0.05999 -2.055246,-0.08863 -1.224174,-0.157577 -1.680103,-0.533579 -1.519143,-1.252826 0.101005,-0.451337 0.247527,-0.720704 1.979382,-3.638921 2.837305,-4.780925 4.474777,-7.410298 4.82128,-7.741776 l 0.141124,-0.135004 0.370094,0.07637 c 0.203551,0.042 0.528905,0.125516 0.723009,0.185583 l 0.352915,0.109213 0.0036,0.516386 c 0.002,0.284012 0.02978,0.605851 0.06178,0.715199 0.151586,0.517872 0.650727,0.873138 1.270731,0.904446 0.433034,0.02187 0.664065,-0.05839 1.07523,-0.373533 l 0.296897,-0.227559 0.584451,0.197763 0.584454,0.197763 0.992187,-0.0059 0.992188,-0.0059 0.683138,1.139873 c 1.117755,1.865065 1.750083,2.95672 1.750083,3.02135 0,0.03343 -0.06706,0.165927 -0.149035,0.294447 -0.245314,0.384632 -0.364376,0.688581 -0.39752,1.014821 -0.09104,0.89608 0.459297,1.826857 1.255261,2.123016 0.09095,0.03384 0.473224,0.0746 0.849496,0.09059 l 0.684133,0.02906 0.24633,0.448847 c 0.379174,0.690904 0.588686,1.213272 0.616465,1.537012 0.02213,0.257905 0.01257,0.299091 -0.100699,0.433701 -0.14107,0.167653 -0.372763,0.25542 -0.972809,0.368508 -0.535008,0.10083 -1.741158,0.149971 -1.878386,0.07653 -0.05622,-0.03009 -0.203506,-0.251075 -0.327308,-0.491085 -0.537361,-1.041762 -1.491909,-1.641182 -2.613502,-1.641182 -0.758055,0 -1.201068,0.189939 -1.842485,0.789955 -0.451682,0.422528 -0.704133,0.78264 -0.777717,1.109391 l -0.05639,0.250393 -2.996618,0.0044 c -1.648141,0.0024 -3.739451,-0.01208 -4.647358,-0.03218 z m 2.761657,-0.755114 c 0.527449,-0.146164 0.876166,-0.350872 1.279345,-0.751017 1.121919,-1.113478 1.122281,-2.797791 8.46e-4,-3.922109 -0.622775,-0.624375 -1.284938,-0.884096 -2.13125,-0.835944 -0.739753,0.04209 -1.310254,0.301721 -1.81901,0.82782 -0.693807,0.717457 -1.006561,1.820802 -0.758708,2.676597 0.274217,0.946823 1.095807,1.793035 1.968814,2.027816 0.385293,0.103618 1.039937,0.09323 1.459964,-0.02316 z m 4.362351,-2.230863 c 0.300038,-0.282972 0.271335,-0.742512 -0.06034,-0.966026 -0.293651,-0.197891 -0.640143,-0.102114 -0.805883,0.222763 -0.185435,0.363482 -0.09069,0.618229 0.306642,0.824453 0.221192,0.114804 0.375505,0.09241 0.559579,-0.08119 z m 2.477356,-1.972989 c 0.310513,-0.155166 0.515043,-0.356539 0.682911,-0.672372 0.08595,-0.161698 0.106011,-0.275559 0.105933,-0.601086 -9.4e-5,-0.343194 -0.01828,-0.435955 -0.125143,-0.637834 -0.272266,-0.514354 -0.688098,-0.756735 -1.291038,-0.752521 -0.291962,0.002 -0.428213,0.02693 -0.598736,0.109392 -0.698138,0.337591 -1.014986,1.165411 -0.698253,1.824304 0.365519,0.760381 1.217145,1.0835 1.924326,0.730117 z m -5.809854,-2.172362 c 0.08659,-0.05279 0.188393,-0.171932 0.228079,-0.266916 0.06481,-0.155114 0.06419,-0.191198 -0.0065,-0.376344 -0.09723,-0.254591 -0.299585,-0.403645 -0.584789,-0.43075 -0.277222,-0.02635 -0.453452,0.09898 -0.527883,0.375394 -0.07639,0.2837 0.0264,0.651062 0.206553,0.738157 0.174301,0.08427 0.513641,0.06467 0.684563,-0.03954 z m 4.13293,-1.376162 c 0.04734,-0.02534 0.127385,-0.11381 0.177869,-0.196606 0.307856,-0.504894 -0.274214,-1.08676 -0.809986,-0.809702 -0.172809,0.08936 -0.325879,0.328806 -0.326117,0.510134 -5.56e-4,0.43344 0.546324,0.716622 0.958234,0.496174 z"
         style="fill:#ff00ff;fill-opacity:1;stroke:#000000;stroke-width:0.41800001;stroke-miterlimit:4;stroke-dasharray:none;stroke-dashoffset:0;stroke-opacity:0.88829794" />
      <g
         id="g1033" />
    </g>
  </g>
</svg>
