<?xml version="1.0" encoding="UTF-8" standalone="no"?>
<!-- Created with Inkscape (http://www.inkscape.org/) -->

<svg
   xmlns:dc="http://purl.org/dc/elements/1.1/"
   xmlns:cc="http://creativecommons.org/ns#"
   xmlns:rdf="http://www.w3.org/1999/02/22-rdf-syntax-ns#"
   xmlns:svg="http://www.w3.org/2000/svg"
   xmlns="http://www.w3.org/2000/svg"
   xmlns:sodipodi="http://sodipodi.sourceforge.net/DTD/sodipodi-0.dtd"
   xmlns:inkscape="http://www.inkscape.org/namespaces/inkscape"
   width="119.05154mm"
   height="115.66072mm"
   viewBox="0 0 119.05154 115.66072"
   version="1.1"
   id="svg8"
   inkscape:version="0.92.3 (2405546, 2018-03-11)"
   sodipodi:docname="pollinator.svg"
   inkscape:export-filename="/home/thomascadei/Bureau/pollinator.png"
   inkscape:export-xdpi="44"
   inkscape:export-ydpi="44">
  <defs
     id="defs2" />
  <sodipodi:namedview
     id="base"
     pagecolor="#ffffff"
     bordercolor="#666666"
     borderopacity="1.0"
     inkscape:pageopacity="0.0"
     inkscape:pageshadow="2"
     inkscape:zoom="0.35"
     inkscape:cx="-488.47459"
     inkscape:cy="110.31537"
     inkscape:document-units="mm"
     inkscape:current-layer="layer1"
     showgrid="false"
     inkscape:window-width="1600"
     inkscape:window-height="845"
     inkscape:window-x="0"
     inkscape:window-y="0"
     inkscape:window-maximized="1"
     fit-margin-top="0"
     fit-margin-left="0"
     fit-margin-right="0"
     fit-margin-bottom="0"
     inkscape:snap-global="false" />
  <metadata
     id="metadata5">
    <rdf:RDF>
      <cc:Work
         rdf:about="">
        <dc:format>image/svg+xml</dc:format>
        <dc:type
           rdf:resource="http://purl.org/dc/dcmitype/StillImage" />
        <dc:title />
      </cc:Work>
    </rdf:RDF>
  </metadata>
  <g
     inkscape:label="Calque 1"
     inkscape:groupmode="layer"
     id="layer1"
     transform="translate(-71.102807,-15.596726)">
    <rect
       style="fill:#000000;fill-opacity:1;stroke:none;stroke-width:0.26458332;stroke-miterlimit:4;stroke-dasharray:0.52916663, 0.52916662999999997;stroke-dashoffset:0;stroke-opacity:0.88829794"
       id="rect105"
       width="119.81845"
       height="116.0387"
       x="71.102806"
       y="15.596732" />
    <g
       id="g32"
       transform="translate(-9.9388145,-9.7146224)">
      <g
         transform="matrix(1.0187837,0,0,1.0187837,10.198669,-1.4827791)"
         id="g103">
        <g
           id="g139"
           transform="matrix(0.55882354,0,0,0.55882354,54.861133,29.767508)"
           style="fill:#ffff00">
          <g
             id="g118"
             style="fill:#ffff00">
            <path
               id="path114"
               style="fill:#ffff00;stroke:none;stroke-width:0.26458332px;stroke-linecap:butt;stroke-linejoin:miter;stroke-opacity:1"
               d="m 98.462797,83.632438 c 0,0 5.480653,8.693455 17.008923,-4.724701 0,0 -14.1741,25.135413 8.31548,38.553573 l 7.03036,14.17411 7.03037,-14.17412 c 22.48958,-13.41815 8.31548,-38.553563 8.31548,-38.553563 11.52827,13.418156 17.00893,4.724702 17.00893,4.724702 m -64.709542,10e-7 c -6.047619,-19.087797 8.315472,-20.599702 8.315472,-20.599702 0,0 -24.37946,-0.188988 -31.37202,-12.284226 -6.992559,-12.095238 -4.157738,-22.300596 1.700893,-27.025298 5.858631,-4.724702 36.518587,22.258672 36.518587,22.258672 -5.48065,-12.662202 2.60195,-30.007184 2.60195,-30.007184 0,0 6.52009,19.560267 14.58988,18.520834 8.44778,1.133927 14.58989,-18.520834 14.58989,-18.520834 0,0 8.0826,17.344982 2.60195,30.007185 0,0 30.65996,-26.983375 36.51859,-22.258673 5.85863,4.724702 8.69345,14.93006 1.70089,27.025297 -6.99256,12.09524 -31.37202,12.284226 -31.37202,12.284226 0,0 14.36309,1.511906 8.31547,20.599705"
               inkscape:connector-curvature="0" />
          </g>
        </g>
        <g
           id="g90">
          <path
             sodipodi:nodetypes="ccc"
             inkscape:connector-curvature="0"
             id="path161"
             d="m 121.98401,54.726282 1.68026,-1.2882 3.09613,1.97385 z"
             style="fill:#ff0000;stroke:none;stroke-width:0.14785539px;stroke-linecap:butt;stroke-linejoin:miter;stroke-opacity:1" />
          <path
             sodipodi:nodetypes="ccc"
             inkscape:connector-curvature="0"
             id="path161-6"
             d="m 133.98199,54.702955 -1.68026,-1.2882 -3.09612,1.973851 z"
             style="fill:#ff0000;stroke:none;stroke-width:0.14785539px;stroke-linecap:butt;stroke-linejoin:miter;stroke-opacity:1" />
        </g>
        <path
           style="fill:#000000;stroke-width:0.04731372"
           d="m 127.54535,96.635496 c -0.28625,-0.80855 -0.52755,-1.48979 -0.53623,-1.51386 -0.009,-0.026 0.46167,-0.0438 1.16447,-0.0438 h 1.18024 l -0.61662,1.51404 c -0.33914,0.83272 -0.62894,1.51395 -0.64401,1.51385 -0.0151,0 -0.2616,-0.66173 -0.54785,-1.47027 z m -0.97794,-3.0696 c -1.12211,-0.20538 -1.94677,-0.80103 -2.72127,-1.96558 -0.21251,-0.31955 -0.58269,-0.94848 -0.58269,-0.99001 0,-0.015 2.20591,-0.0272 4.90204,-0.0272 1.69723,0.35485 6.34228,-1.10895 3.90089,1.32479 -0.85778,0.84311 -1.80112,1.26686 -3.48013,1.56326 -0.6203,0.1095 -1.6693,0.15875 -2.01884,0.0948 z m -4.0776,-4.21454 c -0.45676,-0.0718 -0.82904,-0.19365 -1.02435,-0.33513 -0.30608,-0.22172 -0.88315,-1.28581 -1.27354,-2.34836 l -0.14342,-0.39034 h 8.06447 8.06447 l -0.13958,0.39546 c -0.0768,0.2175 -0.20148,0.53342 -0.27713,0.70204 -0.12226,0.27248 -0.17128,0.32788 -0.44073,0.49805 -1.40424,0.88686 -2.93334,1.24964 -6.0477,1.43485 -1.12647,0.067 -6.41738,0.10087 -6.78249,0.0434 z m -2.23666,-4.28951 -0.52633,-0.0175 -0.0305,-0.17593 c -0.12159,-0.70142 -0.17572,-1.23933 -0.20223,-2.00934 l -0.0306,-0.88713 h 8.64215 8.64217 v 0.62816 0.62816 l -0.43766,0.293 c -0.74522,0.4989 -0.86951,0.53989 -2.47034,0.81474 -1.58186,0.27159 -3.37795,0.48385 -5.46653,0.64603 -0.7336,0.057 -1.77694,0.078 -4.28189,0.0863 -1.82159,0.006 -3.54882,0.003 -3.8383,-0.006 z m 0.8457,-4.39962 -1.43124,-0.0164 4.7e-4,-0.15307 c 10e-4,-0.35354 0.30146,-1.46952 0.62403,-2.31771 0.12273,-0.32272 0.16365,-0.38089 0.34117,-0.48492 0.11094,-0.065 0.37021,-0.16597 0.57615,-0.22435 l 0.37443,-0.10615 7.00799,-0.0134 7.008,-0.0134 0.16783,0.38973 0.16782,0.38972 -0.43361,0.47111 c -0.55987,0.60828 -0.88107,0.86024 -1.23858,0.97159 -0.47835,0.14899 -2.1863,0.51547 -3.20162,0.68698 -1.03928,0.17556 -1.88582,0.28269 -2.85391,0.36115 -0.65196,0.0529 -4.71282,0.0866 -7.10889,0.0591 z m 1.46788,-4.5051 -1.43008,-0.0284 0.15261,-0.1925 c 0.0839,-0.10587 1.65364,-1.81705 3.48824,-3.8026 l 3.33561,-3.610108 0.92262,0.948993 c 0.50744,0.521947 1.58264,1.626486 2.38934,2.454532 1.56108,1.602383 1.67895,1.754573 1.71733,2.217333 0.0359,0.43361 -0.21503,0.76455 -0.77106,1.01668 -0.5199,0.23576 -2.34089,0.64383 -3.66681,0.82171 -1.3149,0.1764 -3.25704,0.23158 -6.1378,0.17436 z m -10.30706,-0.46967 c -0.24267,-0.11416 -0.46823,-0.38519 -0.58897,-0.70767 -0.0515,-0.1375 -0.20404,-0.68042 -0.33903,-1.2065 -0.24251,-0.94512 -0.24547,-0.96526 -0.24847,-1.68988 -0.002,-0.540017 0.0197,-0.839395 0.0831,-1.135532 0.38893,-1.815934 1.52199,-3.425439 2.73624,-3.886819 0.16098,-0.06116 0.81251,-0.170757 1.81348,-0.305038 2.52431,-0.33864 10.3225,-1.343849 10.42528,-1.343849 0.0755,0 0.11884,0.07279 0.21675,0.363998 0.0673,0.200199 0.10542,0.375851 0.0847,0.390338 -0.0207,0.01449 -0.50504,0.376287 -1.07621,0.804 -1.55872,1.167218 -3.19333,2.365266 -6.3613,4.662361 -1.57436,1.141571 -3.48773,2.533021 -4.25192,3.092101 l -1.38945,1.01653 -0.45579,0.0183 c -0.37655,0.0151 -0.48927,0.003 -0.64839,-0.0723 z m 30.68629,0.0544 c -0.065,-0.0129 -0.26732,-0.13218 -0.44948,-0.26514 -0.18216,-0.13296 -1.73641,-1.26275 -3.4539,-2.51066 -5.3478,-3.885634 -9.06251,-6.609967 -9.26068,-6.791685 -0.019,-0.0174 0.0138,-0.190701 0.0728,-0.385108 0.0819,-0.269806 0.12925,-0.356632 0.2001,-0.366835 0.0511,-0.0074 1.98773,0.231587 4.30373,0.530975 8.5256,1.102097 7.95271,1.005762 8.5701,1.441095 1.00851,0.711124 1.79735,2.044785 2.1304,3.601792 0.0617,0.288354 0.0849,0.593797 0.0828,1.087086 -0.003,0.67316 -0.008,0.70596 -0.27107,1.74586 -0.30485,1.20535 -0.45527,1.5461 -0.78531,1.77901 -0.18305,0.12918 -0.23801,0.14262 -0.61114,0.14947 -0.22551,0.004 -0.46324,-0.003 -0.5283,-0.0159 z M 123.66562,64.179172 c -10.41899,-1.078194 -16.84191,-2.044964 -19.32854,-2.909306 -0.64283,-0.223446 -1.57163,-0.697183 -2.26399,-1.154761 -2.06571,-1.3652 -3.400592,-3.176112 -4.07474,-5.527818 -0.261428,-0.91196 -0.384996,-1.720732 -0.471401,-3.08536 -0.02554,-0.403349 -0.07118,-1.095312 -0.101415,-1.537696 -0.149687,-2.190079 0.130737,-3.354774 0.911938,-3.787513 0.239691,-0.132777 0.279334,-0.13952 0.819638,-0.139393 0.533034,1.42e-4 0.599092,0.01097 1.07996,0.177307 0.98992,0.342431 1.79574,0.810709 3.87933,2.254364 2.77044,1.91955 5.25061,3.58928 13.58769,9.147683 4.76213,3.174952 8.67279,5.785988 8.69035,5.802302 0.0519,0.04816 -0.35885,0.974454 -0.43576,0.982795 -0.0381,0.0041 -1.07,-0.09604 -2.29306,-0.222604 z m 6.50263,0.139154 c -0.0582,-0.108824 -0.3755,-0.846329 -0.3755,-0.872891 0,-0.01017 3.37997,-2.268093 7.51105,-5.01762 8.8693,-5.903148 11.31862,-7.553237 15.50707,-10.446997 1.37599,-0.950652 2.39973,-1.516495 3.26465,-1.804451 0.43957,-0.146343 1.20118,-0.207044 1.51852,-0.121028 0.71652,0.194216 1.10739,0.899088 1.2142,2.189652 0.0474,0.572349 0.0388,0.862488 -0.0743,2.531284 -0.14098,2.079028 -0.20358,2.583875 -0.43316,3.493505 -0.74127,2.93707 -2.55344,5.13952 -5.40583,6.570047 -0.62053,0.31121 -1.22394,0.526376 -2.11854,0.755439 -3.0359,0.777344 -9.68634,1.719491 -18.07385,2.560468 -1.17101,0.117412 -2.20927,0.2226 -2.30724,0.233749 -0.14052,0.01599 -0.18845,9.5e-4 -0.22705,-0.07116 z m -2.48096,-2.531157 c -0.46919,-0.116376 -0.64345,-0.262647 -1.7351,-1.456423 -0.54973,-0.601164 -2.00768,-2.099484 -3.23989,-3.329601 -1.2322,-1.230117 -2.24036,-2.257948 -2.24036,-2.284069 0,-0.02612 0.0772,-0.201321 0.1716,-0.389335 0.69622,-1.386973 1.79078,-2.228847 3.48916,-2.683658 l 0.46707,-0.125079 -0.77577,-0.919328 c -1.60325,-1.89993 -1.77956,-2.111926 -2.0827,-2.504337 -0.34865,-0.451318 -0.90091,-1.279954 -1.08002,-1.620495 -0.065,-0.123607 -0.1356,-0.22474 -0.15685,-0.22474 -0.0677,0 -0.35165,0.67103 -0.5213,1.231953 -0.19712,0.651771 -0.36352,1.380435 -0.53751,2.353697 l -0.12927,0.72317 -0.10612,-0.202719 c -0.0796,-0.152047 -0.10665,-0.285577 -0.10825,-0.534205 -0.003,-0.411363 0.10962,-1.391911 0.23833,-2.081514 0.0994,-0.532636 0.92697,-3.877058 0.98709,-3.989109 0.0195,-0.0363 0.1371,0.228919 0.28329,0.638735 0.48185,1.350722 1.04748,2.360719 1.95238,3.486196 0.21193,0.263591 0.96842,1.165998 1.68109,2.005347 1.09739,1.29246 1.31164,1.52256 1.39951,1.50303 0.23688,-0.05265 1.61673,-0.119326 2.46944,-0.119326 0.84728,0 2.23153,0.06656 2.46653,0.118596 0.0841,0.01863 0.33147,-0.24955 1.49039,-1.615785 2.56306,-3.021575 2.84451,-3.454652 3.5932,-5.5289 l 0.20493,-0.567764 0.0623,0.212911 c 0.16133,0.550939 0.7845,3.054832 0.89016,3.576647 0.15385,0.759855 0.24572,1.430083 0.28474,2.077344 0.0294,0.488255 0.0241,0.536549 -0.0858,0.780676 l -0.1172,0.260225 -0.029,-0.165597 c -0.35541,-2.029331 -0.63235,-3.114843 -0.98677,-3.867898 -0.0765,-0.162641 -0.15555,-0.29571 -0.17555,-0.29571 -0.02,0 -0.0968,0.111778 -0.17059,0.248397 -0.43583,0.806568 -1.00151,1.564017 -2.42756,3.250482 -0.5842,0.690882 -1.15505,1.366002 -1.26855,1.500265 -0.11351,0.134263 -0.20638,0.254923 -0.20638,0.268133 0,0.01321 0.11178,0.04761 0.2484,0.07644 1.32557,0.279729 2.49887,0.989216 3.19965,1.934801 0.2303,0.31075 0.58333,0.930306 0.64079,1.124562 0.0246,0.08326 -0.34828,0.477517 -2.28231,2.412999 -1.27145,1.272416 -2.74373,2.787226 -3.27172,3.366247 -0.86022,0.943352 -0.99192,1.068485 -1.26726,1.204036 -0.26352,0.129729 -0.3654,0.152902 -0.71545,0.162724 -0.22449,0.0063 -0.45075,8.94e-4 -0.50279,-0.01201 z m -1.16313,-6.611476 c -0.0108,-0.0092 -0.63113,-0.372586 -1.37843,-0.807553 -0.91422,-0.532121 -1.37994,-0.778186 -1.42361,-0.752144 -0.14496,0.08647 -1.36054,0.975072 -1.38253,1.010642 -0.013,0.02109 0.0958,0.05327 0.24184,0.07152 0.14605,0.01825 1.0246,0.134595 1.95234,0.258552 1.56308,0.208845 2.04039,0.261361 1.99039,0.218987 z m 5.34478,-0.246707 c 1.10822,-0.144877 2.02173,-0.270208 2.03003,-0.278515 0.008,-0.0083 -0.28942,-0.234153 -0.66163,-0.501883 -0.37221,-0.26773 -0.70319,-0.506827 -0.73553,-0.531326 -0.0409,-0.03097 -0.43743,0.175948 -1.30113,0.678911 -1.63043,0.949459 -1.54447,0.895835 -1.43644,0.896048 0.0494,9.5e-5 0.99649,-0.118359 2.1047,-0.263235 z"
           id="path110"
           inkscape:connector-curvature="0"
           sodipodi:nodetypes="ccscsccccscccccccccccccccccccccccccccscsccccccccccccccccccccccccsscccccccccccsscccsccccccsscccsscccccccscccccccsssccscsscssccscssccccsscccsccscccccccccscsccsccsccccsscccscccscsccccscccscccccccc" />
      </g>
      <text
         id="text72"
         y="118.08642"
         x="97.610939"
         style="font-style:normal;font-variant:normal;font-weight:normal;font-stretch:normal;font-size:15.33855152px;line-height:1.25;font-family:Chilanka;-inkscape-font-specification:Chilanka;letter-spacing:0px;word-spacing:0px;fill:#008000;fill-opacity:1;stroke:none;stroke-width:0.3834638"
         xml:space="preserve"><tspan
           style="font-style:normal;font-variant:normal;font-weight:normal;font-stretch:normal;font-family:Games;-inkscape-font-specification:Games;fill:#008000;stroke-width:0.3834638"
           y="118.08642"
           x="97.610939"
           id="tspan70"
           sodipodi:role="line">Pollinator</tspan></text>
      <text
         id="text76"
         y="128.01895"
         x="100.24736"
         style="font-style:normal;font-variant:normal;font-weight:normal;font-stretch:normal;font-size:8.57555199px;line-height:1.25;font-family:NanumMyeongjo;-inkscape-font-specification:NanumMyeongjo;letter-spacing:0px;word-spacing:0px;fill:#ffff00;fill-opacity:1;stroke:none;stroke-width:0.2143888"
         xml:space="preserve"><tspan
           style="font-style:normal;font-variant:normal;font-weight:normal;font-stretch:normal;font-family:'The Naturel Txt';-inkscape-font-specification:'The Naturel Txt';fill:#ffff00;stroke-width:0.2143888"
           y="128.01895"
           x="100.24736"
           id="tspan74"
           sodipodi:role="line">- I'll BEE back ! -</tspan></text>
    </g>
  </g>
</svg>
