<?xml version="1.0" encoding="UTF-8" standalone="no"?>
<!-- Created with Inkscape (http://www.inkscape.org/) -->

<svg
   xmlns:dc="http://purl.org/dc/elements/1.1/"
   xmlns:cc="http://creativecommons.org/ns#"
   xmlns:rdf="http://www.w3.org/1999/02/22-rdf-syntax-ns#"
   xmlns:svg="http://www.w3.org/2000/svg"
   xmlns="http://www.w3.org/2000/svg"
   xmlns:sodipodi="http://sodipodi.sourceforge.net/DTD/sodipodi-0.dtd"
   xmlns:inkscape="http://www.inkscape.org/namespaces/inkscape"
   width="8.551383mm"
   height="8.4457541mm"
   viewBox="0 0 8.5513836 8.4457539"
   version="1.1"
   id="svg8"
   inkscape:version="0.92.3 (2405546, 2018-03-11)"
   sodipodi:docname="toxic.svg"
   inkscape:export-filename="/var/www/html/GameJam-Pollenisation/assets/images/badbee.png"
   inkscape:export-xdpi="44"
   inkscape:export-ydpi="44">
  <defs
     id="defs2" />
  <sodipodi:namedview
     id="base"
     pagecolor="#ffffff"
     bordercolor="#666666"
     borderopacity="1.0"
     inkscape:pageopacity="0.0"
     inkscape:pageshadow="2"
     inkscape:zoom="2.8"
     inkscape:cx="5.1749058"
     inkscape:cy="-39.158757"
     inkscape:document-units="mm"
     inkscape:current-layer="layer1"
     showgrid="false"
     inkscape:window-width="1600"
     inkscape:window-height="845"
     inkscape:window-x="0"
     inkscape:window-y="0"
     inkscape:window-maximized="1"
     fit-margin-top="0"
     fit-margin-left="0"
     fit-margin-right="0"
     fit-margin-bottom="0" />
  <metadata
     id="metadata5">
    <rdf:RDF>
      <cc:Work
         rdf:about="">
        <dc:format>image/svg+xml</dc:format>
        <dc:type
           rdf:resource="http://purl.org/dc/dcmitype/StillImage" />
        <dc:title></dc:title>
      </cc:Work>
    </rdf:RDF>
  </metadata>
  <g
     inkscape:label="Calque 1"
     inkscape:groupmode="layer"
     id="layer1"
     transform="translate(-71.879805,-1.7863854)">
    <path
       style="fill:#00ff00;stroke:#008000;stroke-width:0.08999833px;stroke-linecap:butt;stroke-linejoin:miter;stroke-opacity:1"
       d="M 76.083282,1.894 C 75.991912,1.877387 75.899037,1.8941042 75.810073,1.877929 75.662174,1.851038 75.466566,1.810087 75.311867,1.845787 c -0.147284,0.033989 -0.617885,0.255019 -0.755343,0.3374937 -0.120753,0.072452 -0.203559,0.4794513 -0.241067,0.4982051 -0.110041,0.05502 -0.328506,0.021098 -0.449992,0.032142 -0.447093,0.040645 -0.92528,0.075831 -1.189263,0.4982051 -0.09118,0.1458865 -0.128569,0.3423899 -0.128569,0.5142762 0,0.045931 0.03207,0.2250676 0,0.2571381 -0.331694,0.3316939 -0.693714,0.8104017 -0.610703,1.3499752 0.02342,0.1522619 0.10039,0.3749202 0.192853,0.4982047 0.05343,0.07124 0.136069,0.1274982 0.176783,0.2089249 0.04961,0.09922 -0.184894,0.7999569 -0.208925,0.9321255 -0.0656,0.3607729 -0.0645,0.8153074 0.160712,1.1249791 0.06936,0.095371 0.193234,0.1990231 0.305351,0.2410671 0.04467,0.016751 0.137838,0.025341 0.160711,0.048215 0.04463,0.044625 -0.167177,0.5399528 0.09643,0.803556 0.350839,0.3508395 1.182454,0.6346739 1.687469,0.5785611 0.101282,-0.011254 0.363389,-0.2361553 0.482134,-0.1767821 0.112782,0.056392 0.210252,0.1343685 0.337494,0.1767821 0.289853,0.096618 0.681463,0.069501 0.980338,0.032143 0.08757,-0.010947 0.172624,-0.075298 0.257138,-0.096427 0.501454,0.1107973 0.347428,0.4976282 1.237478,0.4821342 0.153509,0 0.56867,-0.182961 0.691058,-0.3053521 0.11313,-0.1131295 0.02306,-0.4409156 0.12857,-0.5464186 0.03357,-0.033566 0.254152,-0.015074 0.305351,-0.032143 0.336208,-0.1120691 0.52928,-0.2575767 0.658916,-0.594632 0.04457,-0.1158762 0.09983,-0.2268643 0.112498,-0.3535649 0.01349,-0.1349247 0.0225,-0.3150346 0,-0.4499918 -0.01509,-0.090546 -0.149936,-0.8116834 -0.112498,-0.867841 0.08873,-0.1330932 0.272551,-0.1763701 0.401778,-0.2571381 C 80.296709,6.587037 80.42821,6.1819855 80.374277,5.8314281 80.328987,5.5370558 80.213003,5.284448 80.004638,5.0760837 79.858924,4.9303697 79.619632,4.9342486 79.570717,4.7385901 79.535704,4.5985473 79.554557,4.4324148 79.538574,4.2885985 79.519562,4.1175181 79.452271,3.8521049 79.34572,3.7100379 79.09671,3.3780249 79.515033,3.9978308 79.20108,3.5493265 79.187341,3.5297 79.187128,3.5006331 79.168937,3.485042 79.147037,3.466267 79.113317,3.467742 79.088577,3.4529 78.766083,3.2594036 78.613694,3.2600464 78.236807,3.2600464 c -0.03409,0 -0.14226,0.017261 -0.176782,0 -0.02525,-0.012623 0.03478,-0.4032274 -0.01607,-0.5303473 C 77.897148,2.362668 77.443361,2.1370558 77.06362,2.2636361 76.982345,2.2907278 76.900233,2.4404185 76.894874,2.3922051 76.666511,2.190837 76.400508,1.9516776 76.083282,1.894 Z"
       id="path43"
       inkscape:connector-curvature="0"
       sodipodi:nodetypes="cssscsssccscscccscccccccccscccsccsssscssscccc" />
    <path
       style="fill:#ffffff;stroke:#008000;stroke-width:0.0557848;stroke-miterlimit:4;stroke-dasharray:none"
       d="m 74.247395,8.8764591 c -0.02609,-0.010799 -0.05926,-0.042174 -0.07371,-0.069718 -0.01445,-0.02755 -0.06395,-0.097771 -0.109988,-0.1560586 C 73.920351,8.4692112 73.946931,8.436568 74.3316,8.3216748 74.466632,8.2813428 74.699253,8.1948768 74.848536,8.1295273 75.296048,7.9336246 75.697104,7.7524762 75.708464,7.7411157 75.726294,7.7232847 75.446863,7.5563639 75.167031,7.4176769 L 74.90282,7.2867323 74.707396,7.3024613 c -0.297761,0.02396 -0.360499,0.017884 -0.418977,-0.040592 -0.07936,-0.079356 -0.08575,-0.200984 -0.01764,-0.3354051 0.03208,-0.063305 0.05662,-0.1482389 0.05662,-0.1959487 0,-0.103008 0.05149,-0.1560837 0.151425,-0.1560837 0.06185,0 0.102952,0.030231 0.291426,0.2143403 0.231993,0.226624 0.272594,0.2523609 0.982674,0.6229137 L 76.038476,7.5607 76.230627,7.477261 c 0.538925,-0.2340239 0.901436,-0.4119066 0.968418,-0.4751979 0.04542,-0.042912 0.05971,-0.07683 0.05971,-0.1416574 0,-0.1062327 0.03793,-0.1394675 0.157307,-0.1378438 0.07757,0.00106 0.10179,0.012789 0.150911,0.073131 0.126607,0.1555272 0.167963,0.1912997 0.221153,0.1912997 0.06114,0 0.122041,0.071228 0.122041,0.1427308 0,0.1965386 -0.142623,0.2676619 -0.404504,0.2017196 -0.110367,-0.027792 -0.206635,-0.00744 -0.376812,0.079655 -0.05395,0.027609 -0.224157,0.1132819 -0.378237,0.1903792 -0.321137,0.160687 -0.323645,0.1205512 0.01958,0.3133648 0.508013,0.2853866 0.729337,0.3613084 0.982389,0.3369933 0.09508,-0.00913 0.112537,-0.00425 0.14376,0.040338 0.05245,0.074884 0.04425,0.1347518 -0.0438,0.3196205 -0.126679,0.2659721 -0.145224,0.2860113 -0.264704,0.2860113 -0.09623,0 -0.105716,-0.00537 -0.161375,-0.091202 -0.03253,-0.050163 -0.05914,-0.1214907 -0.05914,-0.1585107 0,-0.073377 -0.03302,-0.1193858 -0.08577,-0.119485 -0.01851,-4.37e-5 -0.136254,-0.06179 -0.261651,-0.1372333 -0.125397,-0.075443 -0.390704,-0.212515 -0.58957,-0.304604 l -0.361566,-0.167434 -0.224696,0.089079 c -0.441128,0.174881 -1.115959,0.4797507 -1.173665,0.5302278 -0.03229,0.02824 -0.07912,0.094793 -0.104082,0.1478888 -0.05077,0.1080117 -0.118655,0.1894086 -0.158337,0.1898561 -0.01446,1.724e-4 -0.04584,0.00466 -0.06972,0.010008 -0.02388,0.00531 -0.06477,8.857e-4 -0.09086,-0.00993 z m 1.555847,-1.777468 c -0.247068,-0.105441 -0.460572,-0.2713102 -0.576017,-0.447502 -0.0277,-0.042267 -0.02958,-0.067832 -0.01031,-0.1394288 0.02201,-0.08172 0.0076,-0.258508 -0.0353,-0.4316222 -0.0087,-0.035206 -0.0025,-0.048856 0.02234,-0.048856 0.04998,0 0.09377,0.081942 0.110237,0.2062807 0.02824,0.2132617 0.111845,0.3993371 0.09512,0.2117094 -0.0068,-0.075969 -0.0017,-0.092284 0.0291,-0.092284 0.02839,0 0.03892,0.022096 0.044,0.092284 0.0075,0.1039665 0.06624,0.1320537 0.07944,0.037999 0.01389,-0.099016 0.07644,-0.1038742 0.11261,-0.00875 0.01957,0.05147 0.06434,0.072667 0.06434,0.030462 0,-0.040871 0.105108,-0.023394 0.118803,0.019754 0.0072,0.022807 0.0272,0.053115 0.04435,0.067351 0.02531,0.021003 0.03604,0.015236 0.05693,-0.03061 0.03232,-0.070941 0.072,-0.071585 0.136294,-0.00223 0.0548,0.059131 0.09961,0.070767 0.09961,0.025865 0,-0.015629 0.01367,-0.047122 0.03039,-0.069979 0.02761,-0.037757 0.03573,-0.038699 0.08879,-0.010304 0.05238,0.028031 0.06055,0.027412 0.07926,-0.00602 0.03033,-0.054202 0.07704,-0.045637 0.09276,0.017011 0.02473,0.09856 0.08487,0.054423 0.08739,-0.064146 0.0011,-0.050576 0.01238,-0.067701 0.04807,-0.072788 0.03482,-0.00497 0.05878,-0.039035 0.09438,-0.1342456 0.04615,-0.1234048 0.11678,-0.2164964 0.143777,-0.1895005 0.0072,0.00722 0.0012,0.097253 -0.0134,0.2000619 -0.01512,0.1064753 -0.02024,0.2456983 -0.01191,0.3234881 l 0.01462,0.1365644 -0.118596,0.1083896 C 76.584146,6.9615487 76.163708,7.1610153 76.030227,7.1600948 75.983394,7.15976 75.881249,7.1322678 75.803238,7.0989757 Z m 0.152693,-0.7525593 c -0.0209,-0.054956 -0.07312,-0.072364 -0.09771,-0.032569 -0.01844,0.029847 -0.09166,0.027352 -0.110905,-0.00378 -0.0087,-0.01402 -0.01468,-0.072649 -0.01337,-0.1302827 0.0014,-0.057634 -0.0068,-0.1047887 -0.0181,-0.1047887 -0.01127,0 -0.02048,0.022563 -0.02048,0.050135 0,0.1304945 -0.152247,0.1686266 -0.183061,0.045851 -0.01074,-0.042803 -0.02087,-0.050821 -0.042,-0.033277 -0.04127,0.034248 -0.07893,-0.013758 -0.07893,-0.1006086 0,-0.1364622 -0.18319,-0.2396784 -0.328225,-0.1849337 -0.04716,0.017801 -0.07269,0.0143 -0.124195,-0.017021 -0.08346,-0.050755 -0.09791,-0.1007066 -0.07109,-0.2457848 0.02667,-0.1442513 0.0078,-0.2213924 -0.111978,-0.4589093 -0.110077,-0.2182028 -0.187646,-0.4918018 -0.203153,-0.7165537 -0.01007,-0.1459376 -0.0031,-0.2037593 0.0435,-0.361658 0.071,-0.2405012 0.151097,-0.4090331 0.230572,-0.485175 0.117497,-0.1125689 0.464444,-0.2952746 0.728984,-0.3838895 0.133405,-0.044687 0.189742,-0.050224 0.497848,-0.048924 0.477872,0.00201 0.768724,0.0745 0.966405,0.2408376 0.08071,0.067915 0.276401,0.34533 0.366497,0.5195568 0.08177,0.1581268 0.119634,0.4120425 0.106191,0.7121009 -0.0082,0.1838367 -0.0164,0.2135292 -0.114188,0.4151362 -0.118826,0.2449925 -0.142274,0.3803254 -0.09793,0.5651888 0.02501,0.1042592 0.02366,0.1221159 -0.01413,0.1875815 -0.05944,0.1029401 -0.162763,0.148277 -0.338019,0.1483172 -0.12192,2.2e-5 -0.152954,0.0078 -0.189996,0.047556 -0.02435,0.026136 -0.04427,0.056 -0.04427,0.066363 0,0.010361 -0.04397,0.03829 -0.09771,0.062062 -0.09471,0.041894 -0.09771,0.046196 -0.09771,0.1399188 0,0.079408 -0.0071,0.096696 -0.03994,0.096696 -0.02196,0 -0.05107,-0.02443 -0.06468,-0.054284 -0.01451,-0.031845 -0.04288,-0.054285 -0.06863,-0.054285 -0.03673,0 -0.04389,0.014166 -0.04389,0.086855 0,0.082029 -0.0036,0.086855 -0.06514,0.086855 -0.05066,0 -0.06514,-0.00965 -0.06514,-0.043427 0,-0.023885 -0.0094,-0.043427 -0.02095,-0.043427 -0.01152,0 -0.03141,0.01954 -0.04419,0.043427 -0.03278,0.061243 -0.105164,0.055211 -0.130283,-0.010858 z m 0.06353,-0.6711894 c 0.01398,-0.016847 0.03117,-0.066072 0.0382,-0.1093871 0.01537,-0.094735 0.04728,-0.090978 0.08029,0.00945 0.01882,0.05725 0.0406,0.077995 0.0972,0.092558 0.04012,0.010325 0.07759,0.014136 0.08325,0.00847 0.0057,-0.00567 0.01562,-0.049922 0.02211,-0.098347 0.01021,-0.076139 0.0028,-0.098289 -0.05469,-0.1637836 -0.03658,-0.041655 -0.09249,-0.1200966 -0.124267,-0.1743127 -0.06673,-0.113874 -0.124562,-0.1279164 -0.160033,-0.038861 -0.01308,0.032841 -0.05199,0.1036831 -0.08646,0.1574245 -0.03447,0.053742 -0.06915,0.1431595 -0.07706,0.1987065 -0.01371,0.096253 -0.01153,0.102035 0.04634,0.1231401 0.08462,0.030862 0.105963,0.030063 0.135112,-0.00506 z m 0.910899,-0.4022859 0.131273,-0.066266 -0.0015,-0.1851955 c -0.0018,-0.2164257 0.0067,-0.2079978 -0.248562,-0.2477358 -0.162189,-0.025253 -0.184038,-0.024028 -0.282278,0.015812 -0.05857,0.023751 -0.137915,0.055034 -0.176332,0.069519 -0.112116,0.042273 -0.126025,0.072647 -0.08384,0.183093 0.03394,0.088884 0.151711,0.2097843 0.282178,0.2896884 0.06803,0.041662 0.229608,0.016552 0.379103,-0.058913 z m -1.220409,-0.00445 c 0.01744,-0.014471 0.04686,-0.056337 0.06538,-0.093034 0.01853,-0.036698 0.05218,-0.086999 0.07478,-0.1117808 0.05107,-0.055984 0.03583,-0.1583842 -0.03493,-0.2347397 -0.09465,-0.1021312 -0.551874,-0.1482813 -0.700666,-0.070723 -0.08173,0.042604 -0.08898,0.092844 -0.03776,0.2616862 0.01778,0.058625 0.03233,0.1399408 0.03233,0.1807012 v 0.074109 l 0.116639,-0.014571 c 0.08825,-0.011029 0.131851,-0.00601 0.179139,0.020604 0.07045,0.039649 0.251298,0.032386 0.305081,-0.01225 z"
       id="path127"
       inkscape:connector-curvature="0" />
  </g>
</svg>
